<svg width="421.974" height="99.953" viewBox="0 0 421.974 99.953" xmlns="http://www.w3.org/2000/svg"><g id="svgGroup" stroke-linecap="round" fill-rule="evenodd" font-size="9pt" stroke="#000" stroke-width="0.25mm" fill="#000" style="stroke:#000;stroke-width:0.25mm;fill:#000"><path d="M 9.473 68.263 A 5.483 5.483 0 0 0 5.518 66.651 A 5.314 5.314 0 0 1 1.663 65.09 A 6.36 6.36 0 0 1 1.612 65.04 A 5.483 5.483 0 0 1 0.001 61.085 A 5.314 5.314 0 0 1 1.562 57.229 A 6.36 6.36 0 0 1 1.612 57.179 Q 3.223 55.518 5.518 55.518 A 5.314 5.314 0 0 1 1.663 53.957 A 6.36 6.36 0 0 1 1.612 53.907 A 5.312 5.312 0 0 1 0.001 50.072 A 6.495 6.495 0 0 1 0.001 50.001 A 5.483 5.483 0 0 1 1.612 46.046 A 5.312 5.312 0 0 1 5.447 44.435 A 6.495 6.495 0 0 1 5.518 44.434 A 5.483 5.483 0 0 0 9.473 42.823 A 5.483 5.483 0 0 0 11.085 38.868 A 6.495 6.495 0 0 0 11.084 38.796 A 5.312 5.312 0 0 0 9.473 34.962 A 6.744 6.744 0 0 0 9.421 34.91 A 5.391 5.391 0 0 0 5.518 33.302 Q 3.223 33.302 1.612 34.962 A 6.36 6.36 0 0 0 1.562 35.012 A 5.314 5.314 0 0 0 0.001 38.868 A 5.483 5.483 0 0 0 1.612 42.823 A 6.36 6.36 0 0 0 1.663 42.873 A 5.314 5.314 0 0 0 5.518 44.434 A 5.483 5.483 0 0 1 9.473 46.046 A 5.483 5.483 0 0 1 11.085 50.001 A 5.314 5.314 0 0 1 9.523 53.857 A 6.36 6.36 0 0 1 9.473 53.907 A 5.483 5.483 0 0 1 5.518 55.518 A 5.391 5.391 0 0 1 9.421 57.127 A 6.744 6.744 0 0 1 9.473 57.179 A 5.312 5.312 0 0 1 11.084 61.013 A 6.495 6.495 0 0 1 11.085 61.085 A 5.483 5.483 0 0 1 9.473 65.04 A 5.483 5.483 0 0 1 5.518 66.651 M 76.124 68.263 A 5.483 5.483 0 0 0 72.169 66.651 A 5.314 5.314 0 0 1 68.313 65.09 A 6.36 6.36 0 0 1 68.263 65.04 A 5.483 5.483 0 0 1 66.651 61.085 A 5.314 5.314 0 0 1 68.213 57.229 A 6.36 6.36 0 0 1 68.263 57.179 Q 69.874 55.518 72.169 55.518 A 5.314 5.314 0 0 1 68.313 53.957 A 6.36 6.36 0 0 1 68.263 53.907 A 5.312 5.312 0 0 1 66.652 50.072 A 6.495 6.495 0 0 1 66.651 50.001 A 5.483 5.483 0 0 1 68.263 46.046 A 5.312 5.312 0 0 1 72.097 44.435 A 6.495 6.495 0 0 1 72.169 44.434 A 5.483 5.483 0 0 0 76.124 42.823 A 5.483 5.483 0 0 0 77.735 38.868 A 6.495 6.495 0 0 0 77.735 38.796 A 5.312 5.312 0 0 0 76.124 34.962 A 6.744 6.744 0 0 0 76.072 34.91 A 5.391 5.391 0 0 0 72.169 33.302 Q 69.874 33.302 68.263 34.962 A 6.36 6.36 0 0 0 68.213 35.012 A 5.314 5.314 0 0 0 66.651 38.868 A 5.483 5.483 0 0 0 68.263 42.823 A 6.36 6.36 0 0 0 68.313 42.873 A 5.314 5.314 0 0 0 72.169 44.434 A 5.483 5.483 0 0 1 76.124 46.046 A 5.483 5.483 0 0 1 77.735 50.001 A 5.314 5.314 0 0 1 76.174 53.857 A 6.36 6.36 0 0 1 76.124 53.907 A 5.483 5.483 0 0 1 72.169 55.518 A 5.391 5.391 0 0 1 76.072 57.127 A 6.744 6.744 0 0 1 76.124 57.179 A 5.312 5.312 0 0 1 77.735 61.013 A 6.495 6.495 0 0 1 77.735 61.085 A 5.483 5.483 0 0 1 76.124 65.04 A 5.483 5.483 0 0 1 72.169 66.651 M 332.631 30.064 A 5.616 5.616 0 0 0 333.106 27.735 A 5.314 5.314 0 0 1 334.668 23.879 A 6.36 6.36 0 0 1 334.718 23.829 A 5.483 5.483 0 0 1 338.673 22.218 Q 340.968 22.218 342.579 20.557 A 6.408 6.408 0 0 0 342.681 20.456 A 5.227 5.227 0 0 0 344.239 16.651 A 5.527 5.527 0 0 0 343.921 14.765 A 5.594 5.594 0 0 0 342.579 12.696 A 6.36 6.36 0 0 0 342.528 12.646 A 5.314 5.314 0 0 0 338.673 11.085 A 5.483 5.483 0 0 0 334.718 12.696 A 5.483 5.483 0 0 0 333.106 16.651 A 6.495 6.495 0 0 0 333.107 16.723 A 5.312 5.312 0 0 0 334.718 20.557 A 6.744 6.744 0 0 0 334.77 20.609 A 5.391 5.391 0 0 0 338.673 22.218 A 5.314 5.314 0 0 1 342.528 23.779 A 6.36 6.36 0 0 1 342.579 23.829 Q 344.239 25.44 344.239 27.735 A 6.772 6.772 0 0 0 344.239 27.808 A 5.367 5.367 0 0 0 345.85 31.69 A 6.36 6.36 0 0 0 345.901 31.74 A 5.314 5.314 0 0 0 349.757 33.302 A 5.483 5.483 0 0 0 353.712 31.69 A 5.456 5.456 0 0 0 354.848 30.064 A 5.616 5.616 0 0 0 355.323 27.735 A 6.495 6.495 0 0 0 355.323 27.664 A 5.312 5.312 0 0 0 353.712 23.829 A 5.483 5.483 0 0 0 349.757 22.218 A 6.495 6.495 0 0 0 349.685 22.218 A 5.312 5.312 0 0 0 345.85 23.829 A 6.36 6.36 0 0 0 345.8 23.879 A 5.314 5.314 0 0 0 344.239 27.735 A 5.436 5.436 0 0 1 343.684 30.2 A 5.501 5.501 0 0 1 342.579 31.69 A 5.312 5.312 0 0 1 338.744 33.301 A 6.495 6.495 0 0 1 338.673 33.302 A 5.483 5.483 0 0 1 334.718 31.69 A 5.367 5.367 0 0 1 333.107 27.808 A 6.772 6.772 0 0 1 333.106 27.735 M 190.382 87.208 A 5.483 5.483 0 0 0 194.337 88.819 A 6.495 6.495 0 0 0 194.408 88.819 A 5.312 5.312 0 0 0 198.243 87.208 A 6.744 6.744 0 0 0 198.294 87.156 A 5.391 5.391 0 0 0 199.903 83.253 Q 199.903 80.958 198.243 79.347 A 6.36 6.36 0 0 0 198.192 79.297 A 5.314 5.314 0 0 0 194.337 77.735 A 5.483 5.483 0 0 1 190.382 76.124 A 5.312 5.312 0 0 1 188.771 72.289 A 6.495 6.495 0 0 1 188.77 72.218 A 5.483 5.483 0 0 1 190.382 68.263 A 5.483 5.483 0 0 1 194.337 66.651 A 6.495 6.495 0 0 0 194.408 66.651 A 5.312 5.312 0 0 0 198.243 65.04 A 6.744 6.744 0 0 0 198.294 64.988 A 5.391 5.391 0 0 0 199.903 61.085 Q 199.903 58.79 198.243 57.179 A 6.408 6.408 0 0 0 198.142 57.076 A 5.227 5.227 0 0 0 194.337 55.518 A 5.527 5.527 0 0 0 192.45 55.836 A 5.594 5.594 0 0 0 190.382 57.179 A 6.36 6.36 0 0 0 190.332 57.229 A 5.314 5.314 0 0 0 188.77 61.085 A 5.483 5.483 0 0 0 190.382 65.04 A 5.483 5.483 0 0 0 194.337 66.651 A 5.314 5.314 0 0 1 198.192 68.213 A 6.36 6.36 0 0 1 198.243 68.263 A 5.594 5.594 0 0 1 199.585 70.331 A 5.527 5.527 0 0 1 199.903 72.218 A 5.227 5.227 0 0 1 198.345 76.022 A 6.408 6.408 0 0 1 198.243 76.124 A 5.312 5.312 0 0 1 194.408 77.735 A 6.495 6.495 0 0 1 194.337 77.735 A 5.483 5.483 0 0 0 190.382 79.347 A 6.36 6.36 0 0 0 190.332 79.397 A 5.314 5.314 0 0 0 188.77 83.253 A 5.483 5.483 0 0 0 190.382 87.208 Z M 234.866 53.957 A 5.314 5.314 0 0 0 238.722 55.518 A 5.483 5.483 0 0 0 242.677 53.907 A 6.36 6.36 0 0 0 242.727 53.857 A 5.314 5.314 0 0 0 244.288 50.001 A 5.483 5.483 0 0 1 245.899 46.046 A 5.483 5.483 0 0 1 249.854 44.434 A 6.495 6.495 0 0 0 249.926 44.434 A 5.312 5.312 0 0 0 253.761 42.823 A 6.744 6.744 0 0 0 253.812 42.771 A 5.391 5.391 0 0 0 255.421 38.868 Q 255.421 36.573 253.761 34.962 A 6.408 6.408 0 0 0 253.659 34.86 A 5.227 5.227 0 0 0 249.854 33.302 A 5.527 5.527 0 0 0 247.968 33.619 A 5.594 5.594 0 0 0 245.899 34.962 A 6.36 6.36 0 0 0 245.849 35.012 A 5.314 5.314 0 0 0 244.288 38.868 A 5.483 5.483 0 0 0 245.899 42.823 A 5.483 5.483 0 0 0 249.854 44.434 A 5.314 5.314 0 0 1 253.71 45.996 A 6.36 6.36 0 0 1 253.761 46.046 A 5.594 5.594 0 0 1 255.103 48.114 A 5.527 5.527 0 0 1 255.421 50.001 A 5.227 5.227 0 0 1 253.863 53.806 A 6.408 6.408 0 0 1 253.761 53.907 A 5.312 5.312 0 0 1 249.926 55.518 A 6.495 6.495 0 0 1 249.854 55.518 A 5.483 5.483 0 0 1 245.899 53.907 A 5.312 5.312 0 0 1 244.288 50.072 A 6.495 6.495 0 0 1 244.288 50.001 A 5.483 5.483 0 0 0 242.677 46.046 A 5.483 5.483 0 0 0 238.722 44.434 A 6.495 6.495 0 0 0 238.65 44.435 A 5.312 5.312 0 0 0 234.815 46.046 A 5.483 5.483 0 0 0 233.204 50.001 A 6.495 6.495 0 0 0 233.204 50.072 A 5.312 5.312 0 0 0 234.815 53.907 A 6.36 6.36 0 0 0 234.866 53.957 Z M 279.2 31.69 A 5.483 5.483 0 0 0 283.155 33.302 A 6.495 6.495 0 0 0 283.227 33.301 A 5.312 5.312 0 0 0 287.061 31.69 A 5.501 5.501 0 0 0 288.167 30.2 A 5.436 5.436 0 0 0 288.722 27.735 A 5.314 5.314 0 0 1 290.283 23.879 A 6.36 6.36 0 0 1 290.333 23.829 A 5.312 5.312 0 0 1 294.168 22.218 A 6.495 6.495 0 0 1 294.239 22.218 A 5.483 5.483 0 0 1 298.194 23.829 A 5.312 5.312 0 0 1 299.805 27.664 A 6.495 6.495 0 0 1 299.805 27.735 A 6.772 6.772 0 0 0 299.806 27.808 A 5.367 5.367 0 0 0 301.417 31.69 A 5.483 5.483 0 0 0 305.372 33.302 A 6.495 6.495 0 0 0 305.443 33.301 A 5.312 5.312 0 0 0 309.278 31.69 A 5.501 5.501 0 0 0 310.383 30.2 A 5.436 5.436 0 0 0 310.938 27.735 Q 310.938 25.44 309.278 23.829 A 6.36 6.36 0 0 0 309.228 23.779 A 5.314 5.314 0 0 0 305.372 22.218 A 5.483 5.483 0 0 0 301.417 23.829 A 6.36 6.36 0 0 0 301.367 23.879 A 5.314 5.314 0 0 0 299.805 27.735 A 5.616 5.616 0 0 1 299.33 30.064 A 5.456 5.456 0 0 1 298.194 31.69 A 5.483 5.483 0 0 1 294.239 33.302 A 5.314 5.314 0 0 1 290.383 31.74 A 6.36 6.36 0 0 1 290.333 31.69 A 5.367 5.367 0 0 1 288.722 27.808 A 6.772 6.772 0 0 1 288.722 27.735 Q 288.722 25.44 287.061 23.829 A 6.36 6.36 0 0 0 287.011 23.779 A 5.314 5.314 0 0 0 283.155 22.218 A 5.483 5.483 0 0 0 279.2 23.829 A 6.36 6.36 0 0 0 279.15 23.879 A 5.314 5.314 0 0 0 277.589 27.735 A 6.772 6.772 0 0 0 277.589 27.808 A 5.367 5.367 0 0 0 279.2 31.69 Z M 390.235 31.69 A 5.483 5.483 0 0 0 394.19 33.302 A 6.495 6.495 0 0 0 394.262 33.301 A 5.312 5.312 0 0 0 398.097 31.69 A 5.501 5.501 0 0 0 399.202 30.2 A 5.436 5.436 0 0 0 399.757 27.735 A 5.314 5.314 0 0 1 401.318 23.879 A 6.36 6.36 0 0 1 401.368 23.829 A 5.312 5.312 0 0 1 405.203 22.218 A 6.495 6.495 0 0 1 405.274 22.218 A 5.483 5.483 0 0 1 409.229 23.829 A 5.312 5.312 0 0 1 410.84 27.664 A 6.495 6.495 0 0 1 410.841 27.735 A 6.772 6.772 0 0 0 410.841 27.808 A 5.367 5.367 0 0 0 412.452 31.69 A 5.483 5.483 0 0 0 416.407 33.302 A 6.495 6.495 0 0 0 416.479 33.301 A 5.312 5.312 0 0 0 420.313 31.69 A 5.501 5.501 0 0 0 421.419 30.2 A 5.436 5.436 0 0 0 421.973 27.735 Q 421.973 25.44 420.313 23.829 A 6.36 6.36 0 0 0 420.263 23.779 A 5.314 5.314 0 0 0 416.407 22.218 A 5.483 5.483 0 0 0 412.452 23.829 A 6.36 6.36 0 0 0 412.402 23.879 A 5.314 5.314 0 0 0 410.841 27.735 A 5.616 5.616 0 0 1 410.366 30.064 A 5.456 5.456 0 0 1 409.229 31.69 A 5.483 5.483 0 0 1 405.274 33.302 A 5.314 5.314 0 0 1 401.419 31.74 A 6.36 6.36 0 0 1 401.368 31.69 A 5.367 5.367 0 0 1 399.757 27.808 A 6.772 6.772 0 0 1 399.757 27.735 Q 399.757 25.44 398.097 23.829 A 6.36 6.36 0 0 0 398.046 23.779 A 5.314 5.314 0 0 0 394.19 22.218 A 5.483 5.483 0 0 0 390.235 23.829 A 6.36 6.36 0 0 0 390.185 23.879 A 5.314 5.314 0 0 0 388.624 27.735 A 6.772 6.772 0 0 0 388.624 27.808 A 5.367 5.367 0 0 0 390.235 31.69 Z M 220.408 57.127 A 5.391 5.391 0 0 0 216.505 55.518 A 5.483 5.483 0 0 0 220.46 53.907 A 6.36 6.36 0 0 0 220.51 53.857 A 5.314 5.314 0 0 0 222.071 50.001 A 5.483 5.483 0 0 1 223.682 46.046 A 5.483 5.483 0 0 1 227.638 44.434 A 5.314 5.314 0 0 1 231.493 45.996 A 6.36 6.36 0 0 1 231.544 46.046 A 5.594 5.594 0 0 1 232.886 48.114 A 5.527 5.527 0 0 1 233.204 50.001 A 5.227 5.227 0 0 1 231.646 53.806 A 6.408 6.408 0 0 1 231.544 53.907 A 5.312 5.312 0 0 1 227.709 55.518 A 6.495 6.495 0 0 1 227.638 55.518 A 5.483 5.483 0 0 1 223.682 53.907 A 5.312 5.312 0 0 1 222.072 50.072 A 6.495 6.495 0 0 1 222.071 50.001 A 5.483 5.483 0 0 0 220.46 46.046 A 5.483 5.483 0 0 0 216.505 44.434 A 6.495 6.495 0 0 0 216.433 44.435 A 5.312 5.312 0 0 0 212.598 46.046 A 5.483 5.483 0 0 0 210.987 50.001 A 6.495 6.495 0 0 0 210.988 50.072 A 5.312 5.312 0 0 0 212.598 53.907 A 6.36 6.36 0 0 0 212.649 53.957 A 5.314 5.314 0 0 0 216.505 55.518 M 190.382 53.907 A 5.483 5.483 0 0 0 194.337 55.518 A 6.495 6.495 0 0 0 194.408 55.518 A 5.312 5.312 0 0 0 198.243 53.907 A 6.408 6.408 0 0 0 198.345 53.806 A 5.227 5.227 0 0 0 199.903 50.001 A 5.527 5.527 0 0 0 199.585 48.114 A 5.594 5.594 0 0 0 198.243 46.046 A 6.36 6.36 0 0 0 198.192 45.996 A 5.314 5.314 0 0 0 194.337 44.434 A 5.483 5.483 0 0 1 190.382 42.823 A 5.483 5.483 0 0 1 188.77 38.868 A 5.314 5.314 0 0 1 190.332 35.012 A 6.36 6.36 0 0 1 190.382 34.962 A 5.594 5.594 0 0 1 192.45 33.619 A 5.527 5.527 0 0 1 194.337 33.302 A 5.227 5.227 0 0 1 198.142 34.86 A 6.408 6.408 0 0 1 198.243 34.962 Q 199.903 36.573 199.903 38.868 A 5.391 5.391 0 0 1 198.294 42.771 A 6.744 6.744 0 0 1 198.243 42.823 A 5.312 5.312 0 0 1 194.408 44.434 A 6.495 6.495 0 0 1 194.337 44.434 A 5.483 5.483 0 0 0 190.382 46.046 A 5.483 5.483 0 0 0 188.77 50.001 A 6.495 6.495 0 0 0 188.771 50.072 A 5.312 5.312 0 0 0 190.382 53.907 Z M 334.718 53.907 A 5.483 5.483 0 0 0 338.673 55.518 A 6.495 6.495 0 0 0 338.744 55.518 A 5.312 5.312 0 0 0 342.579 53.907 A 6.408 6.408 0 0 0 342.681 53.806 A 5.227 5.227 0 0 0 344.239 50.001 A 5.527 5.527 0 0 0 343.921 48.114 A 5.594 5.594 0 0 0 342.579 46.046 A 6.36 6.36 0 0 0 342.528 45.996 A 5.314 5.314 0 0 0 338.673 44.434 A 5.483 5.483 0 0 1 334.718 42.823 A 5.483 5.483 0 0 1 333.106 38.868 A 5.314 5.314 0 0 1 334.668 35.012 A 6.36 6.36 0 0 1 334.718 34.962 A 5.594 5.594 0 0 1 336.786 33.619 A 5.527 5.527 0 0 1 338.673 33.302 A 5.227 5.227 0 0 1 342.478 34.86 A 6.408 6.408 0 0 1 342.579 34.962 Q 344.239 36.573 344.239 38.868 A 5.391 5.391 0 0 1 342.63 42.771 A 6.744 6.744 0 0 1 342.579 42.823 A 5.312 5.312 0 0 1 338.744 44.434 A 6.495 6.495 0 0 1 338.673 44.434 A 5.483 5.483 0 0 0 334.718 46.046 A 5.483 5.483 0 0 0 333.106 50.001 A 6.495 6.495 0 0 0 333.107 50.072 A 5.312 5.312 0 0 0 334.718 53.907 Z M 157.081 53.907 A 5.483 5.483 0 0 0 161.036 55.518 A 6.495 6.495 0 0 0 161.108 55.518 A 5.312 5.312 0 0 0 164.942 53.907 A 6.408 6.408 0 0 0 165.044 53.806 A 5.227 5.227 0 0 0 166.602 50.001 A 5.527 5.527 0 0 0 166.285 48.114 A 5.594 5.594 0 0 0 164.942 46.046 A 6.36 6.36 0 0 0 164.892 45.996 A 5.314 5.314 0 0 0 161.036 44.434 A 5.483 5.483 0 0 1 157.081 42.823 A 5.483 5.483 0 0 1 155.47 38.868 A 5.314 5.314 0 0 1 157.031 35.012 A 6.36 6.36 0 0 1 157.081 34.962 A 5.594 5.594 0 0 1 159.149 33.619 A 5.527 5.527 0 0 1 161.036 33.302 A 5.227 5.227 0 0 1 164.841 34.86 A 6.408 6.408 0 0 1 164.942 34.962 Q 166.602 36.573 166.602 38.868 A 5.391 5.391 0 0 1 164.994 42.771 A 6.744 6.744 0 0 1 164.942 42.823 A 5.312 5.312 0 0 1 161.108 44.434 A 6.495 6.495 0 0 1 161.036 44.434 A 5.483 5.483 0 0 0 157.081 46.046 A 5.483 5.483 0 0 0 155.47 50.001 A 6.495 6.495 0 0 0 155.47 50.072 A 5.312 5.312 0 0 0 157.081 53.907 Z M 47.672 32.827 A 5.616 5.616 0 0 0 50.001 33.302 A 6.495 6.495 0 0 0 50.072 33.301 A 5.312 5.312 0 0 0 53.907 31.69 A 5.456 5.456 0 0 0 55.043 30.064 A 5.616 5.616 0 0 0 55.518 27.735 A 6.495 6.495 0 0 0 55.518 27.664 A 5.312 5.312 0 0 0 53.907 23.829 A 6.36 6.36 0 0 0 53.857 23.779 A 5.314 5.314 0 0 0 50.001 22.218 Q 52.296 22.218 53.907 20.557 A 6.36 6.36 0 0 0 53.957 20.507 A 5.314 5.314 0 0 0 55.518 16.651 A 5.483 5.483 0 0 0 53.907 12.696 A 6.36 6.36 0 0 0 53.857 12.646 A 5.314 5.314 0 0 0 50.001 11.085 A 6.772 6.772 0 0 0 49.928 11.085 A 5.367 5.367 0 0 0 46.046 12.696 A 5.483 5.483 0 0 0 44.434 16.651 A 6.495 6.495 0 0 0 44.435 16.723 A 5.312 5.312 0 0 0 46.046 20.557 A 5.501 5.501 0 0 0 47.536 21.663 A 5.436 5.436 0 0 0 50.001 22.218 A 6.772 6.772 0 0 0 49.928 22.218 A 5.367 5.367 0 0 0 46.046 23.829 A 6.36 6.36 0 0 0 45.996 23.879 A 5.314 5.314 0 0 0 44.434 27.735 A 6.772 6.772 0 0 0 44.435 27.808 A 5.367 5.367 0 0 0 46.046 31.69 A 5.456 5.456 0 0 0 47.672 32.827 Z M 134.864 31.69 A 5.483 5.483 0 0 0 138.819 33.302 A 6.495 6.495 0 0 0 138.891 33.301 A 5.312 5.312 0 0 0 142.725 31.69 A 5.501 5.501 0 0 0 143.831 30.2 A 5.436 5.436 0 0 0 144.386 27.735 A 5.314 5.314 0 0 1 145.947 23.879 A 6.36 6.36 0 0 1 145.997 23.829 A 5.312 5.312 0 0 1 149.832 22.218 A 6.495 6.495 0 0 1 149.903 22.218 A 5.483 5.483 0 0 1 153.858 23.829 A 5.312 5.312 0 0 1 155.469 27.664 A 6.495 6.495 0 0 1 155.47 27.735 A 5.616 5.616 0 0 1 154.995 30.064 A 5.456 5.456 0 0 1 153.858 31.69 A 5.483 5.483 0 0 1 149.903 33.302 A 5.314 5.314 0 0 1 146.047 31.74 A 6.36 6.36 0 0 1 145.997 31.69 A 5.367 5.367 0 0 1 144.386 27.808 A 6.772 6.772 0 0 1 144.386 27.735 Q 144.386 25.44 142.725 23.829 A 6.36 6.36 0 0 0 142.675 23.779 A 5.314 5.314 0 0 0 138.819 22.218 A 5.483 5.483 0 0 0 134.864 23.829 A 6.36 6.36 0 0 0 134.814 23.879 A 5.314 5.314 0 0 0 133.253 27.735 A 6.772 6.772 0 0 0 133.253 27.808 A 5.367 5.367 0 0 0 134.864 31.69 Z M 223.682 31.69 A 5.483 5.483 0 0 0 227.638 33.302 A 6.495 6.495 0 0 0 227.709 33.301 A 5.312 5.312 0 0 0 231.544 31.69 A 5.501 5.501 0 0 0 232.649 30.2 A 5.436 5.436 0 0 0 233.204 27.735 A 5.314 5.314 0 0 1 234.765 23.879 A 6.36 6.36 0 0 1 234.815 23.829 A 5.312 5.312 0 0 1 238.65 22.218 A 6.495 6.495 0 0 1 238.722 22.218 A 5.483 5.483 0 0 1 242.677 23.829 A 5.312 5.312 0 0 1 244.288 27.664 A 6.495 6.495 0 0 1 244.288 27.735 A 5.616 5.616 0 0 1 243.813 30.064 A 5.456 5.456 0 0 1 242.677 31.69 A 5.483 5.483 0 0 1 238.722 33.302 A 5.314 5.314 0 0 1 234.866 31.74 A 6.36 6.36 0 0 1 234.815 31.69 A 5.367 5.367 0 0 1 233.204 27.808 A 6.772 6.772 0 0 1 233.204 27.735 Q 233.204 25.44 231.544 23.829 A 6.36 6.36 0 0 0 231.493 23.779 A 5.314 5.314 0 0 0 227.638 22.218 A 5.483 5.483 0 0 0 223.682 23.829 A 6.36 6.36 0 0 0 223.632 23.879 A 5.314 5.314 0 0 0 222.071 27.735 A 6.772 6.772 0 0 0 222.072 27.808 A 5.367 5.367 0 0 0 223.682 31.69 Z M 379.202 76.174 A 5.314 5.314 0 0 0 383.057 77.735 A 5.483 5.483 0 0 0 387.013 76.124 A 6.36 6.36 0 0 0 387.062 76.073 A 5.314 5.314 0 0 0 388.624 72.218 A 5.483 5.483 0 0 1 390.235 68.263 A 5.483 5.483 0 0 1 394.19 66.651 A 5.314 5.314 0 0 1 398.046 68.213 A 6.36 6.36 0 0 1 398.097 68.263 A 5.594 5.594 0 0 1 399.439 70.331 A 5.527 5.527 0 0 1 399.757 72.218 A 5.227 5.227 0 0 1 398.199 76.022 A 6.408 6.408 0 0 1 398.097 76.124 A 5.312 5.312 0 0 1 394.262 77.735 A 6.495 6.495 0 0 1 394.19 77.735 A 5.483 5.483 0 0 1 390.235 76.124 A 5.312 5.312 0 0 1 388.624 72.289 A 6.495 6.495 0 0 1 388.624 72.218 A 5.483 5.483 0 0 0 387.013 68.263 A 5.483 5.483 0 0 0 383.057 66.651 A 6.495 6.495 0 0 0 382.986 66.652 A 5.312 5.312 0 0 0 379.151 68.263 A 5.483 5.483 0 0 0 377.54 72.218 A 6.495 6.495 0 0 0 377.54 72.289 A 5.312 5.312 0 0 0 379.151 76.124 A 6.36 6.36 0 0 0 379.202 76.174 Z M 234.866 76.174 A 5.314 5.314 0 0 0 238.722 77.735 A 5.483 5.483 0 0 0 242.677 76.124 A 6.36 6.36 0 0 0 242.727 76.073 A 5.314 5.314 0 0 0 244.288 72.218 A 5.483 5.483 0 0 1 245.899 68.263 A 5.483 5.483 0 0 1 249.854 66.651 A 5.314 5.314 0 0 1 253.71 68.213 A 6.36 6.36 0 0 1 253.761 68.263 A 5.594 5.594 0 0 1 255.103 70.331 A 5.527 5.527 0 0 1 255.421 72.218 A 5.227 5.227 0 0 1 253.863 76.022 A 6.408 6.408 0 0 1 253.761 76.124 A 5.312 5.312 0 0 1 249.926 77.735 A 6.495 6.495 0 0 1 249.854 77.735 A 5.483 5.483 0 0 1 245.899 76.124 A 5.312 5.312 0 0 1 244.288 72.289 A 6.495 6.495 0 0 1 244.288 72.218 A 5.483 5.483 0 0 0 242.677 68.263 A 5.483 5.483 0 0 0 238.722 66.651 A 6.495 6.495 0 0 0 238.65 66.652 A 5.312 5.312 0 0 0 234.815 68.263 A 5.483 5.483 0 0 0 233.204 72.218 A 6.495 6.495 0 0 0 233.204 72.289 A 5.312 5.312 0 0 0 234.815 76.124 A 6.36 6.36 0 0 0 234.866 76.174 Z M 290.383 76.174 A 5.314 5.314 0 0 0 294.239 77.735 A 5.483 5.483 0 0 0 298.194 76.124 A 6.36 6.36 0 0 0 298.244 76.073 A 5.314 5.314 0 0 0 299.805 72.218 A 5.483 5.483 0 0 1 301.417 68.263 A 5.483 5.483 0 0 1 305.372 66.651 A 5.314 5.314 0 0 1 309.228 68.213 A 6.36 6.36 0 0 1 309.278 68.263 A 5.594 5.594 0 0 1 310.621 70.331 A 5.527 5.527 0 0 1 310.938 72.218 A 5.227 5.227 0 0 1 309.38 76.022 A 6.408 6.408 0 0 1 309.278 76.124 A 5.312 5.312 0 0 1 305.443 77.735 A 6.495 6.495 0 0 1 305.372 77.735 A 5.483 5.483 0 0 1 301.417 76.124 A 5.312 5.312 0 0 1 299.806 72.289 A 6.495 6.495 0 0 1 299.805 72.218 A 5.483 5.483 0 0 0 298.194 68.263 A 5.483 5.483 0 0 0 294.239 66.651 A 6.495 6.495 0 0 0 294.168 66.652 A 5.312 5.312 0 0 0 290.333 68.263 A 5.483 5.483 0 0 0 288.722 72.218 A 6.495 6.495 0 0 0 288.722 72.289 A 5.312 5.312 0 0 0 290.333 76.124 A 6.36 6.36 0 0 0 290.383 76.174 Z M 345.901 76.174 A 5.314 5.314 0 0 0 349.757 77.735 A 5.483 5.483 0 0 0 353.712 76.124 A 6.36 6.36 0 0 0 353.762 76.073 A 5.314 5.314 0 0 0 355.323 72.218 A 5.483 5.483 0 0 1 356.934 68.263 A 5.483 5.483 0 0 1 360.889 66.651 A 5.314 5.314 0 0 1 364.745 68.213 A 6.36 6.36 0 0 1 364.796 68.263 A 5.594 5.594 0 0 1 366.138 70.331 A 5.527 5.527 0 0 1 366.456 72.218 A 5.227 5.227 0 0 1 364.898 76.022 A 6.408 6.408 0 0 1 364.796 76.124 A 5.312 5.312 0 0 1 360.961 77.735 A 6.495 6.495 0 0 1 360.889 77.735 A 5.483 5.483 0 0 1 356.934 76.124 A 5.312 5.312 0 0 1 355.323 72.289 A 6.495 6.495 0 0 1 355.323 72.218 A 5.483 5.483 0 0 0 353.712 68.263 A 5.483 5.483 0 0 0 349.757 66.651 A 6.495 6.495 0 0 0 349.685 66.652 A 5.312 5.312 0 0 0 345.85 68.263 A 5.483 5.483 0 0 0 344.239 72.218 A 6.495 6.495 0 0 0 344.239 72.289 A 5.312 5.312 0 0 0 345.85 76.124 A 6.36 6.36 0 0 0 345.901 76.174 Z M 131.641 46.046 A 5.483 5.483 0 0 0 127.686 44.434 A 5.314 5.314 0 0 1 123.831 42.873 A 6.36 6.36 0 0 1 123.78 42.823 A 5.483 5.483 0 0 1 122.169 38.868 A 5.314 5.314 0 0 1 123.73 35.012 A 6.36 6.36 0 0 1 123.78 34.962 Q 125.391 33.302 127.686 33.302 A 5.391 5.391 0 0 1 131.589 34.91 A 6.744 6.744 0 0 1 131.641 34.962 A 5.312 5.312 0 0 1 133.252 38.796 A 6.495 6.495 0 0 1 133.253 38.868 A 5.483 5.483 0 0 1 131.641 42.823 A 5.483 5.483 0 0 1 127.686 44.434 M 220.46 46.046 A 5.483 5.483 0 0 0 216.505 44.434 A 5.314 5.314 0 0 1 212.649 42.873 A 6.36 6.36 0 0 1 212.598 42.823 A 5.483 5.483 0 0 1 210.987 38.868 A 5.314 5.314 0 0 1 212.548 35.012 A 6.36 6.36 0 0 1 212.598 34.962 Q 214.21 33.302 216.505 33.302 A 5.391 5.391 0 0 1 220.408 34.91 A 6.744 6.744 0 0 1 220.46 34.962 A 5.312 5.312 0 0 1 222.071 38.796 A 6.495 6.495 0 0 1 222.071 38.868 A 5.483 5.483 0 0 1 220.46 42.823 A 5.483 5.483 0 0 1 216.505 44.434 M 275.977 46.046 A 5.483 5.483 0 0 0 272.022 44.434 A 5.314 5.314 0 0 1 268.167 42.873 A 6.36 6.36 0 0 1 268.116 42.823 A 5.483 5.483 0 0 1 266.505 38.868 A 5.314 5.314 0 0 1 268.066 35.012 A 6.36 6.36 0 0 1 268.116 34.962 Q 269.727 33.302 272.022 33.302 A 5.391 5.391 0 0 1 275.925 34.91 A 6.744 6.744 0 0 1 275.977 34.962 A 5.312 5.312 0 0 1 277.588 38.796 A 6.495 6.495 0 0 1 277.589 38.868 A 5.483 5.483 0 0 1 275.977 42.823 A 5.483 5.483 0 0 1 272.022 44.434 M 9.473 12.696 A 5.483 5.483 0 0 0 5.518 11.085 A 5.314 5.314 0 0 1 1.663 9.523 A 6.36 6.36 0 0 1 1.612 9.473 A 5.483 5.483 0 0 1 0.001 5.518 A 5.314 5.314 0 0 1 1.562 1.663 A 6.36 6.36 0 0 1 1.612 1.612 A 5.312 5.312 0 0 1 5.447 0.001 A 6.495 6.495 0 0 1 5.518 0.001 A 5.483 5.483 0 0 1 9.473 1.612 A 5.312 5.312 0 0 1 11.084 5.447 A 6.495 6.495 0 0 1 11.085 5.518 A 5.483 5.483 0 0 1 9.473 9.473 A 5.483 5.483 0 0 1 5.518 11.085 M 20.609 42.771 A 5.391 5.391 0 0 0 22.218 38.868 A 5.483 5.483 0 0 0 23.829 42.823 A 6.36 6.36 0 0 0 23.879 42.873 A 5.314 5.314 0 0 0 27.735 44.434 A 5.483 5.483 0 0 0 31.69 42.823 A 5.483 5.483 0 0 0 33.302 38.868 A 6.495 6.495 0 0 0 33.301 38.796 A 5.312 5.312 0 0 0 31.69 34.962 A 6.744 6.744 0 0 0 31.638 34.91 A 5.391 5.391 0 0 0 27.735 33.302 Q 25.44 33.302 23.829 34.962 A 6.36 6.36 0 0 0 23.779 35.012 A 5.314 5.314 0 0 0 22.218 38.868 M 9.421 34.91 A 5.391 5.391 0 0 0 5.518 33.302 A 5.483 5.483 0 0 0 9.473 31.69 A 5.456 5.456 0 0 0 10.61 30.064 A 5.616 5.616 0 0 0 11.085 27.735 A 6.495 6.495 0 0 0 11.084 27.664 A 5.312 5.312 0 0 0 9.473 23.829 A 5.483 5.483 0 0 0 5.518 22.218 A 6.495 6.495 0 0 0 5.447 22.218 A 5.312 5.312 0 0 0 1.612 23.829 A 6.36 6.36 0 0 0 1.562 23.879 A 5.314 5.314 0 0 0 0.001 27.735 A 6.772 6.772 0 0 0 0.001 27.808 A 5.367 5.367 0 0 0 1.612 31.69 A 6.36 6.36 0 0 0 1.663 31.74 A 5.314 5.314 0 0 0 5.518 33.302 M 76.072 34.91 A 5.391 5.391 0 0 0 72.169 33.302 A 5.483 5.483 0 0 0 76.124 31.69 A 5.456 5.456 0 0 0 77.26 30.064 A 5.616 5.616 0 0 0 77.735 27.735 A 6.495 6.495 0 0 0 77.735 27.664 A 5.312 5.312 0 0 0 76.124 23.829 A 5.483 5.483 0 0 0 72.169 22.218 A 6.495 6.495 0 0 0 72.097 22.218 A 5.312 5.312 0 0 0 68.263 23.829 A 6.36 6.36 0 0 0 68.213 23.879 A 5.314 5.314 0 0 0 66.651 27.735 A 6.772 6.772 0 0 0 66.652 27.808 A 5.367 5.367 0 0 0 68.263 31.69 A 6.36 6.36 0 0 0 68.313 31.74 A 5.314 5.314 0 0 0 72.169 33.302 M 20.609 9.421 A 5.391 5.391 0 0 0 22.218 5.518 A 5.483 5.483 0 0 0 23.829 9.473 A 6.36 6.36 0 0 0 23.879 9.523 A 5.314 5.314 0 0 0 27.735 11.085 A 5.483 5.483 0 0 0 31.69 9.473 A 5.483 5.483 0 0 0 33.302 5.518 A 6.495 6.495 0 0 0 33.301 5.447 A 5.312 5.312 0 0 0 31.69 1.612 A 5.483 5.483 0 0 0 27.735 0.001 A 6.495 6.495 0 0 0 27.664 0.001 A 5.312 5.312 0 0 0 23.829 1.612 A 6.36 6.36 0 0 0 23.779 1.663 A 5.314 5.314 0 0 0 22.218 5.518 M 131.589 57.127 A 5.391 5.391 0 0 0 127.686 55.518 A 5.483 5.483 0 0 0 131.641 53.907 A 6.36 6.36 0 0 0 131.691 53.857 A 5.314 5.314 0 0 0 133.253 50.001 A 5.483 5.483 0 0 0 131.641 46.046 A 5.483 5.483 0 0 0 127.686 44.434 A 6.495 6.495 0 0 0 127.615 44.435 A 5.312 5.312 0 0 0 123.78 46.046 A 5.483 5.483 0 0 0 122.169 50.001 A 6.495 6.495 0 0 0 122.169 50.072 A 5.312 5.312 0 0 0 123.78 53.907 A 6.36 6.36 0 0 0 123.831 53.957 A 5.314 5.314 0 0 0 127.686 55.518 M 275.925 57.127 A 5.391 5.391 0 0 0 272.022 55.518 A 5.483 5.483 0 0 0 275.977 53.907 A 6.36 6.36 0 0 0 276.027 53.857 A 5.314 5.314 0 0 0 277.589 50.001 A 5.483 5.483 0 0 0 275.977 46.046 A 5.483 5.483 0 0 0 272.022 44.434 A 6.495 6.495 0 0 0 271.951 44.435 A 5.312 5.312 0 0 0 268.116 46.046 A 5.483 5.483 0 0 0 266.505 50.001 A 6.495 6.495 0 0 0 266.505 50.072 A 5.312 5.312 0 0 0 268.116 53.907 A 6.36 6.36 0 0 0 268.167 53.957 A 5.314 5.314 0 0 0 272.022 55.518 M 188.295 30.064 A 5.616 5.616 0 0 0 188.77 27.735 A 5.314 5.314 0 0 1 190.332 23.879 A 6.36 6.36 0 0 1 190.382 23.829 A 5.483 5.483 0 0 1 194.337 22.218 A 5.314 5.314 0 0 1 198.192 23.779 A 6.36 6.36 0 0 1 198.243 23.829 Q 199.903 25.44 199.903 27.735 A 5.436 5.436 0 0 1 199.348 30.2 A 5.501 5.501 0 0 1 198.243 31.69 A 5.312 5.312 0 0 1 194.408 33.301 A 6.495 6.495 0 0 1 194.337 33.302 A 5.483 5.483 0 0 1 190.382 31.69 A 5.367 5.367 0 0 1 188.771 27.808 A 6.772 6.772 0 0 1 188.77 27.735 M 99.477 30.064 A 5.616 5.616 0 0 0 99.952 27.735 A 5.314 5.314 0 0 1 101.513 23.879 A 6.36 6.36 0 0 1 101.563 23.829 A 5.483 5.483 0 0 1 105.518 22.218 A 5.314 5.314 0 0 1 109.374 23.779 A 6.36 6.36 0 0 1 109.425 23.829 Q 111.085 25.44 111.085 27.735 A 5.436 5.436 0 0 1 110.53 30.2 A 5.501 5.501 0 0 1 109.425 31.69 A 5.312 5.312 0 0 1 105.59 33.301 A 6.495 6.495 0 0 1 105.518 33.302 A 5.483 5.483 0 0 1 101.563 31.69 A 5.367 5.367 0 0 1 99.952 27.808 A 6.772 6.772 0 0 1 99.952 27.735 M 354.848 30.064 A 5.616 5.616 0 0 0 355.323 27.735 A 5.314 5.314 0 0 1 356.884 23.879 A 6.36 6.36 0 0 1 356.934 23.829 A 5.483 5.483 0 0 1 360.889 22.218 A 5.314 5.314 0 0 1 364.745 23.779 A 6.36 6.36 0 0 1 364.796 23.829 Q 366.456 25.44 366.456 27.735 A 5.436 5.436 0 0 1 365.901 30.2 A 5.501 5.501 0 0 1 364.796 31.69 A 5.312 5.312 0 0 1 360.961 33.301 A 6.495 6.495 0 0 1 360.889 33.302 A 5.483 5.483 0 0 1 356.934 31.69 A 5.367 5.367 0 0 1 355.323 27.808 A 6.772 6.772 0 0 1 355.323 27.735 M 11.085 38.868 A 5.483 5.483 0 0 0 12.696 42.823 A 5.483 5.483 0 0 0 16.651 44.434 A 6.495 6.495 0 0 0 16.723 44.434 A 5.312 5.312 0 0 0 20.557 42.823 A 6.744 6.744 0 0 0 20.609 42.771 A 5.391 5.391 0 0 0 22.218 38.868 Q 22.218 36.573 20.557 34.962 A 6.408 6.408 0 0 0 20.456 34.86 A 5.227 5.227 0 0 0 16.651 33.302 A 5.527 5.527 0 0 0 14.765 33.619 A 5.594 5.594 0 0 0 12.696 34.962 A 6.36 6.36 0 0 0 12.646 35.012 A 5.314 5.314 0 0 0 11.085 38.868 Z M 77.735 38.868 A 5.483 5.483 0 0 0 79.347 42.823 A 5.483 5.483 0 0 0 83.302 44.434 A 6.495 6.495 0 0 0 83.373 44.434 A 5.312 5.312 0 0 0 87.208 42.823 A 6.744 6.744 0 0 0 87.259 42.771 A 5.391 5.391 0 0 0 88.868 38.868 Q 88.868 36.573 87.208 34.962 A 6.408 6.408 0 0 0 87.106 34.86 A 5.227 5.227 0 0 0 83.302 33.302 A 5.527 5.527 0 0 0 81.415 33.619 A 5.594 5.594 0 0 0 79.347 34.962 A 6.36 6.36 0 0 0 79.297 35.012 A 5.314 5.314 0 0 0 77.735 38.868 Z M 334.718 65.04 A 5.483 5.483 0 0 0 338.673 66.651 A 6.495 6.495 0 0 0 338.744 66.651 A 5.312 5.312 0 0 0 342.579 65.04 A 6.744 6.744 0 0 0 342.63 64.988 A 5.391 5.391 0 0 0 344.239 61.085 Q 344.239 58.79 342.579 57.179 A 6.408 6.408 0 0 0 342.478 57.076 A 5.227 5.227 0 0 0 338.673 55.518 A 5.527 5.527 0 0 0 336.786 55.836 A 5.594 5.594 0 0 0 334.718 57.179 A 6.36 6.36 0 0 0 334.668 57.229 A 5.314 5.314 0 0 0 333.106 61.085 A 5.483 5.483 0 0 0 334.718 65.04 Z M 157.081 65.04 A 5.483 5.483 0 0 0 161.036 66.651 A 6.495 6.495 0 0 0 161.108 66.651 A 5.312 5.312 0 0 0 164.942 65.04 A 6.744 6.744 0 0 0 164.994 64.988 A 5.391 5.391 0 0 0 166.602 61.085 Q 166.602 58.79 164.942 57.179 A 6.408 6.408 0 0 0 164.841 57.076 A 5.227 5.227 0 0 0 161.036 55.518 A 5.527 5.527 0 0 0 159.149 55.836 A 5.594 5.594 0 0 0 157.081 57.179 A 6.36 6.36 0 0 0 157.031 57.229 A 5.314 5.314 0 0 0 155.47 61.085 A 5.483 5.483 0 0 0 157.081 65.04 Z M 412.452 65.04 A 5.483 5.483 0 0 0 416.407 66.651 A 6.495 6.495 0 0 0 416.479 66.651 A 5.312 5.312 0 0 0 420.313 65.04 A 6.744 6.744 0 0 0 420.365 64.988 A 5.391 5.391 0 0 0 421.973 61.085 Q 421.973 58.79 420.313 57.179 A 6.408 6.408 0 0 0 420.212 57.076 A 5.227 5.227 0 0 0 416.407 55.518 A 5.527 5.527 0 0 0 414.52 55.836 A 5.594 5.594 0 0 0 412.452 57.179 A 6.36 6.36 0 0 0 412.402 57.229 A 5.314 5.314 0 0 0 410.841 61.085 A 5.483 5.483 0 0 0 412.452 65.04 Z M 33.302 38.868 A 5.483 5.483 0 0 0 34.913 42.823 A 5.483 5.483 0 0 0 38.868 44.434 A 6.495 6.495 0 0 0 38.94 44.434 A 5.312 5.312 0 0 0 42.774 42.823 A 6.744 6.744 0 0 0 42.826 42.771 A 5.391 5.391 0 0 0 44.434 38.868 Q 44.434 36.573 42.774 34.962 A 6.408 6.408 0 0 0 42.673 34.86 A 5.227 5.227 0 0 0 38.868 33.302 A 5.527 5.527 0 0 0 36.981 33.619 A 5.594 5.594 0 0 0 34.913 34.962 A 6.36 6.36 0 0 0 34.863 35.012 A 5.314 5.314 0 0 0 33.302 38.868 Z M 179.399 98.394 A 5.227 5.227 0 0 0 183.204 99.952 A 5.527 5.527 0 0 0 185.09 99.634 A 5.594 5.594 0 0 0 187.159 98.292 A 6.36 6.36 0 0 0 187.209 98.241 A 5.314 5.314 0 0 0 188.77 94.386 A 5.483 5.483 0 0 0 187.159 90.43 A 5.483 5.483 0 0 0 183.204 88.819 A 6.495 6.495 0 0 0 183.132 88.82 A 5.312 5.312 0 0 0 179.298 90.43 A 5.483 5.483 0 0 0 177.686 94.386 A 6.495 6.495 0 0 0 177.687 94.457 A 5.312 5.312 0 0 0 179.298 98.292 A 6.408 6.408 0 0 0 179.399 98.394 Z M 390.235 53.907 A 5.483 5.483 0 0 0 394.19 55.518 A 6.495 6.495 0 0 0 394.262 55.518 A 5.312 5.312 0 0 0 398.097 53.907 A 6.408 6.408 0 0 0 398.199 53.806 A 5.227 5.227 0 0 0 399.757 50.001 A 5.527 5.527 0 0 0 399.439 48.114 A 5.594 5.594 0 0 0 398.097 46.046 A 6.36 6.36 0 0 0 398.046 45.996 A 5.314 5.314 0 0 0 394.19 44.434 A 5.483 5.483 0 0 0 390.235 46.046 A 5.483 5.483 0 0 0 388.624 50.001 A 6.495 6.495 0 0 0 388.624 50.072 A 5.312 5.312 0 0 0 390.235 53.907 Z M 134.864 76.124 A 5.483 5.483 0 0 0 138.819 77.735 A 6.495 6.495 0 0 0 138.891 77.735 A 5.312 5.312 0 0 0 142.725 76.124 A 6.408 6.408 0 0 0 142.828 76.022 A 5.227 5.227 0 0 0 144.386 72.218 A 5.527 5.527 0 0 0 144.068 70.331 A 5.594 5.594 0 0 0 142.725 68.263 A 6.36 6.36 0 0 0 142.675 68.213 A 5.314 5.314 0 0 0 138.819 66.651 A 5.483 5.483 0 0 0 134.864 68.263 A 5.483 5.483 0 0 0 133.253 72.218 A 6.495 6.495 0 0 0 133.253 72.289 A 5.312 5.312 0 0 0 134.864 76.124 Z M 223.682 76.124 A 5.483 5.483 0 0 0 227.638 77.735 A 6.495 6.495 0 0 0 227.709 77.735 A 5.312 5.312 0 0 0 231.544 76.124 A 6.408 6.408 0 0 0 231.646 76.022 A 5.227 5.227 0 0 0 233.204 72.218 A 5.527 5.527 0 0 0 232.886 70.331 A 5.594 5.594 0 0 0 231.544 68.263 A 6.36 6.36 0 0 0 231.493 68.213 A 5.314 5.314 0 0 0 227.638 66.651 A 5.483 5.483 0 0 0 223.682 68.263 A 5.483 5.483 0 0 0 222.071 72.218 A 6.495 6.495 0 0 0 222.072 72.289 A 5.312 5.312 0 0 0 223.682 76.124 Z M 279.2 76.124 A 5.483 5.483 0 0 0 283.155 77.735 A 6.495 6.495 0 0 0 283.227 77.735 A 5.312 5.312 0 0 0 287.061 76.124 A 6.408 6.408 0 0 0 287.163 76.022 A 5.227 5.227 0 0 0 288.722 72.218 A 5.527 5.527 0 0 0 288.404 70.331 A 5.594 5.594 0 0 0 287.061 68.263 A 6.36 6.36 0 0 0 287.011 68.213 A 5.314 5.314 0 0 0 283.155 66.651 A 5.483 5.483 0 0 0 279.2 68.263 A 5.483 5.483 0 0 0 277.589 72.218 A 6.495 6.495 0 0 0 277.589 72.289 A 5.312 5.312 0 0 0 279.2 76.124 Z M 1.714 20.66 A 5.227 5.227 0 0 0 5.518 22.218 A 5.527 5.527 0 0 0 7.405 21.9 A 5.594 5.594 0 0 0 9.473 20.557 A 6.36 6.36 0 0 0 9.523 20.507 A 5.314 5.314 0 0 0 11.085 16.651 A 5.483 5.483 0 0 0 9.473 12.696 A 5.483 5.483 0 0 0 5.518 11.085 A 6.495 6.495 0 0 0 5.447 11.085 A 5.312 5.312 0 0 0 1.612 12.696 A 5.483 5.483 0 0 0 0.001 16.651 A 6.495 6.495 0 0 0 0.001 16.723 A 5.312 5.312 0 0 0 1.612 20.557 A 6.408 6.408 0 0 0 1.714 20.66 Z M 11.085 5.518 A 5.483 5.483 0 0 0 12.696 9.473 A 5.483 5.483 0 0 0 16.651 11.085 A 6.495 6.495 0 0 0 16.723 11.084 A 5.312 5.312 0 0 0 20.557 9.473 A 6.744 6.744 0 0 0 20.609 9.421 A 5.391 5.391 0 0 0 22.218 5.518 Q 22.218 3.223 20.557 1.612 A 6.36 6.36 0 0 0 20.507 1.562 A 5.314 5.314 0 0 0 16.651 0.001 A 5.483 5.483 0 0 0 12.696 1.612 A 6.36 6.36 0 0 0 12.646 1.663 A 5.314 5.314 0 0 0 11.085 5.518 Z M 190.382 9.473 A 5.483 5.483 0 0 0 194.337 11.085 A 6.495 6.495 0 0 0 194.408 11.084 A 5.312 5.312 0 0 0 198.243 9.473 A 6.744 6.744 0 0 0 198.294 9.421 A 5.391 5.391 0 0 0 199.903 5.518 Q 199.903 3.223 198.243 1.612 A 6.36 6.36 0 0 0 198.192 1.562 A 5.314 5.314 0 0 0 194.337 0.001 A 5.483 5.483 0 0 0 190.382 1.612 A 6.36 6.36 0 0 0 190.332 1.663 A 5.314 5.314 0 0 0 188.77 5.518 A 5.483 5.483 0 0 0 190.382 9.473 Z M 33.302 5.518 A 5.483 5.483 0 0 0 34.913 9.473 A 5.483 5.483 0 0 0 38.868 11.085 A 6.495 6.495 0 0 0 38.94 11.084 A 5.312 5.312 0 0 0 42.774 9.473 A 6.744 6.744 0 0 0 42.826 9.421 A 5.391 5.391 0 0 0 44.434 5.518 Q 44.434 3.223 42.774 1.612 A 6.36 6.36 0 0 0 42.724 1.562 A 5.314 5.314 0 0 0 38.868 0.001 A 5.483 5.483 0 0 0 34.913 1.612 A 6.36 6.36 0 0 0 34.863 1.663 A 5.314 5.314 0 0 0 33.302 5.518 Z M 123.831 65.09 A 5.314 5.314 0 0 0 127.686 66.651 A 5.483 5.483 0 0 0 131.641 65.04 A 5.483 5.483 0 0 0 133.253 61.085 A 6.495 6.495 0 0 0 133.252 61.013 A 5.312 5.312 0 0 0 131.641 57.179 A 6.744 6.744 0 0 0 131.589 57.127 A 5.391 5.391 0 0 0 127.686 55.518 Q 125.391 55.518 123.78 57.179 A 6.36 6.36 0 0 0 123.73 57.229 A 5.314 5.314 0 0 0 122.169 61.085 A 5.483 5.483 0 0 0 123.78 65.04 A 6.36 6.36 0 0 0 123.831 65.09 Z M 212.649 65.09 A 5.314 5.314 0 0 0 216.505 66.651 A 5.483 5.483 0 0 0 220.46 65.04 A 5.483 5.483 0 0 0 222.071 61.085 A 6.495 6.495 0 0 0 222.071 61.013 A 5.312 5.312 0 0 0 220.46 57.179 A 6.744 6.744 0 0 0 220.408 57.127 A 5.391 5.391 0 0 0 216.505 55.518 Q 214.21 55.518 212.598 57.179 A 6.36 6.36 0 0 0 212.548 57.229 A 5.314 5.314 0 0 0 210.987 61.085 A 5.483 5.483 0 0 0 212.598 65.04 A 6.36 6.36 0 0 0 212.649 65.09 Z M 268.167 65.09 A 5.314 5.314 0 0 0 272.022 66.651 A 5.483 5.483 0 0 0 275.977 65.04 A 5.483 5.483 0 0 0 277.589 61.085 A 6.495 6.495 0 0 0 277.588 61.013 A 5.312 5.312 0 0 0 275.977 57.179 A 6.744 6.744 0 0 0 275.925 57.127 A 5.391 5.391 0 0 0 272.022 55.518 Q 269.727 55.518 268.116 57.179 A 6.36 6.36 0 0 0 268.066 57.229 A 5.314 5.314 0 0 0 266.505 61.085 A 5.483 5.483 0 0 0 268.116 65.04 A 6.36 6.36 0 0 0 268.167 65.09 Z M 379.202 42.873 A 5.314 5.314 0 0 0 383.057 44.434 A 5.483 5.483 0 0 0 387.013 42.823 A 5.483 5.483 0 0 0 388.624 38.868 A 6.495 6.495 0 0 0 388.623 38.796 A 5.312 5.312 0 0 0 387.013 34.962 A 6.744 6.744 0 0 0 386.96 34.91 A 5.391 5.391 0 0 0 383.057 33.302 Q 380.763 33.302 379.151 34.962 A 6.36 6.36 0 0 0 379.101 35.012 A 5.314 5.314 0 0 0 377.54 38.868 A 5.483 5.483 0 0 0 379.151 42.823 A 6.36 6.36 0 0 0 379.202 42.873 Z M 90.53 31.74 A 5.314 5.314 0 0 0 94.386 33.302 A 5.483 5.483 0 0 0 98.341 31.69 A 5.456 5.456 0 0 0 99.477 30.064 A 5.616 5.616 0 0 0 99.952 27.735 A 6.495 6.495 0 0 0 99.952 27.664 A 5.312 5.312 0 0 0 98.341 23.829 A 5.483 5.483 0 0 0 94.386 22.218 A 6.495 6.495 0 0 0 94.314 22.218 A 5.312 5.312 0 0 0 90.479 23.829 A 6.36 6.36 0 0 0 90.429 23.879 A 5.314 5.314 0 0 0 88.868 27.735 A 6.772 6.772 0 0 0 88.868 27.808 A 5.367 5.367 0 0 0 90.479 31.69 A 6.36 6.36 0 0 0 90.53 31.74 Z M 179.348 31.74 A 5.314 5.314 0 0 0 183.204 33.302 A 5.483 5.483 0 0 0 187.159 31.69 A 5.456 5.456 0 0 0 188.295 30.064 A 5.616 5.616 0 0 0 188.77 27.735 A 6.495 6.495 0 0 0 188.77 27.664 A 5.312 5.312 0 0 0 187.159 23.829 A 5.483 5.483 0 0 0 183.204 22.218 A 6.495 6.495 0 0 0 183.132 22.218 A 5.312 5.312 0 0 0 179.298 23.829 A 6.36 6.36 0 0 0 179.248 23.879 A 5.314 5.314 0 0 0 177.686 27.735 A 6.772 6.772 0 0 0 177.687 27.808 A 5.367 5.367 0 0 0 179.298 31.69 A 6.36 6.36 0 0 0 179.348 31.74 Z M 323.684 31.74 A 5.314 5.314 0 0 0 327.54 33.302 A 5.483 5.483 0 0 0 331.495 31.69 A 5.456 5.456 0 0 0 332.631 30.064 A 5.616 5.616 0 0 0 333.106 27.735 A 6.495 6.495 0 0 0 333.106 27.664 A 5.312 5.312 0 0 0 331.495 23.829 A 5.483 5.483 0 0 0 327.54 22.218 A 6.495 6.495 0 0 0 327.468 22.218 A 5.312 5.312 0 0 0 323.634 23.829 A 6.36 6.36 0 0 0 323.584 23.879 A 5.314 5.314 0 0 0 322.022 27.735 A 6.772 6.772 0 0 0 322.023 27.808 A 5.367 5.367 0 0 0 323.634 31.69 A 6.36 6.36 0 0 0 323.684 31.74 Z M 401.419 53.957 A 5.314 5.314 0 0 0 405.274 55.518 A 5.483 5.483 0 0 0 409.229 53.907 A 6.36 6.36 0 0 0 409.279 53.857 A 5.314 5.314 0 0 0 410.841 50.001 A 5.483 5.483 0 0 0 409.229 46.046 A 5.483 5.483 0 0 0 405.274 44.434 A 6.495 6.495 0 0 0 405.203 44.435 A 5.312 5.312 0 0 0 401.368 46.046 A 5.483 5.483 0 0 0 399.757 50.001 A 6.495 6.495 0 0 0 399.757 50.072 A 5.312 5.312 0 0 0 401.368 53.907 A 6.36 6.36 0 0 0 401.419 53.957 Z M 1.663 76.174 A 5.314 5.314 0 0 0 5.518 77.735 A 5.483 5.483 0 0 0 9.473 76.124 A 6.36 6.36 0 0 0 9.523 76.073 A 5.314 5.314 0 0 0 11.085 72.218 A 5.483 5.483 0 0 0 9.473 68.263 A 5.483 5.483 0 0 0 5.518 66.651 A 6.495 6.495 0 0 0 5.447 66.652 A 5.312 5.312 0 0 0 1.612 68.263 A 5.483 5.483 0 0 0 0.001 72.218 A 6.495 6.495 0 0 0 0.001 72.289 A 5.312 5.312 0 0 0 1.612 76.124 A 6.36 6.36 0 0 0 1.663 76.174 Z M 68.313 76.174 A 5.314 5.314 0 0 0 72.169 77.735 A 5.483 5.483 0 0 0 76.124 76.124 A 6.36 6.36 0 0 0 76.174 76.073 A 5.314 5.314 0 0 0 77.735 72.218 A 5.483 5.483 0 0 0 76.124 68.263 A 5.483 5.483 0 0 0 72.169 66.651 A 6.495 6.495 0 0 0 72.097 66.652 A 5.312 5.312 0 0 0 68.263 68.263 A 5.483 5.483 0 0 0 66.651 72.218 A 6.495 6.495 0 0 0 66.652 72.289 A 5.312 5.312 0 0 0 68.263 76.124 A 6.36 6.36 0 0 0 68.313 76.174 Z M 146.047 76.174 A 5.314 5.314 0 0 0 149.903 77.735 A 5.483 5.483 0 0 0 153.858 76.124 A 6.36 6.36 0 0 0 153.908 76.073 A 5.314 5.314 0 0 0 155.47 72.218 A 5.483 5.483 0 0 0 153.858 68.263 A 5.483 5.483 0 0 0 149.903 66.651 A 6.495 6.495 0 0 0 149.832 66.652 A 5.312 5.312 0 0 0 145.997 68.263 A 5.483 5.483 0 0 0 144.386 72.218 A 6.495 6.495 0 0 0 144.386 72.289 A 5.312 5.312 0 0 0 145.997 76.124 A 6.36 6.36 0 0 0 146.047 76.174 Z M 401.419 76.174 A 5.314 5.314 0 0 0 405.274 77.735 A 5.483 5.483 0 0 0 409.229 76.124 A 6.36 6.36 0 0 0 409.279 76.073 A 5.314 5.314 0 0 0 410.841 72.218 A 5.483 5.483 0 0 0 409.229 68.263 A 5.483 5.483 0 0 0 405.274 66.651 A 6.495 6.495 0 0 0 405.203 66.652 A 5.312 5.312 0 0 0 401.368 68.263 A 5.483 5.483 0 0 0 399.757 72.218 A 6.495 6.495 0 0 0 399.757 72.289 A 5.312 5.312 0 0 0 401.368 76.124 A 6.36 6.36 0 0 0 401.419 76.174 Z" vector-effect="non-scaling-stroke"/></g></svg>