<svg width="295.382" height="69.967" viewBox="0 0 211.382 69.967"   xmlns="http://www.w3.org/2000/svg"><g id="svgGroup" stroke-linecap="round" fill-rule="evenodd" font-size="9pt" stroke="#ffffff" stroke-width="0.25mm" fill="#faf4f4" style="stroke:#ffffff;stroke-width:0.25mm;fill:#faf4f4"><path d="M 0.831 38.087 A 2.657 2.657 0 0 0 2.759 38.868 A 2.741 2.741 0 0 0 4.737 38.062 A 3.18 3.18 0 0 0 4.762 38.037 A 2.657 2.657 0 0 0 5.542 36.109 A 2.741 2.741 0 0 0 4.737 34.131 Q 3.907 33.326 2.759 33.326 A 2.657 2.657 0 0 1 0.831 32.545 A 3.18 3.18 0 0 1 0.806 32.52 A 2.741 2.741 0 0 1 0 30.542 A 2.657 2.657 0 0 1 0.781 28.615 A 3.18 3.18 0 0 1 0.806 28.589 A 2.666 2.666 0 0 1 1.915 27.886 A 2.756 2.756 0 0 1 2.759 27.759 A 2.741 2.741 0 0 0 4.737 26.954 A 3.18 3.18 0 0 0 4.762 26.928 A 2.657 2.657 0 0 0 5.542 25 A 2.741 2.741 0 0 0 4.737 23.023 Q 3.907 22.217 2.759 22.217 A 2.657 2.657 0 0 1 0.831 21.437 A 3.18 3.18 0 0 1 0.806 21.412 A 2.741 2.741 0 0 1 0 19.434 A 2.657 2.657 0 0 1 0.781 17.506 A 3.18 3.18 0 0 1 0.806 17.481 A 2.666 2.666 0 0 1 1.915 16.777 A 2.756 2.756 0 0 1 2.759 16.651 A 2.741 2.741 0 0 0 4.737 15.845 A 2.728 2.728 0 0 0 5.305 15.032 A 2.808 2.808 0 0 0 5.542 13.868 A 3.244 3.244 0 0 0 5.542 13.832 A 2.656 2.656 0 0 0 4.737 11.914 Q 3.907 11.109 2.759 11.109 Q 3.907 11.109 4.737 10.279 A 3.18 3.18 0 0 0 4.762 10.253 A 2.657 2.657 0 0 0 5.542 8.326 A 2.741 2.741 0 0 0 4.737 6.348 Q 3.907 5.542 2.759 5.542 A 2.657 2.657 0 0 1 0.831 4.762 A 3.18 3.18 0 0 1 0.806 4.737 A 2.741 2.741 0 0 1 0 2.759 A 2.657 2.657 0 0 1 0.781 0.831 A 3.18 3.18 0 0 1 0.806 0.806 A 2.656 2.656 0 0 1 2.723 0.001 A 3.244 3.244 0 0 1 2.759 0 Q 3.907 0 4.737 0.806 A 2.656 2.656 0 0 1 5.542 2.723 A 3.244 3.244 0 0 1 5.542 2.759 A 2.741 2.741 0 0 0 6.348 4.737 Q 7.178 5.542 8.326 5.542 A 3.244 3.244 0 0 0 8.361 5.542 A 2.656 2.656 0 0 0 10.279 4.737 A 3.374 3.374 0 0 0 10.304 4.711 A 2.695 2.695 0 0 0 11.109 2.759 A 2.657 2.657 0 0 1 11.889 0.831 A 3.18 3.18 0 0 1 11.914 0.806 A 2.656 2.656 0 0 1 13.832 0.001 A 3.244 3.244 0 0 1 13.868 0 Q 15.015 0 15.845 0.806 A 2.656 2.656 0 0 1 16.651 2.723 A 3.244 3.244 0 0 1 16.651 2.759 A 2.741 2.741 0 0 0 17.456 4.737 Q 18.287 5.542 19.434 5.542 A 3.244 3.244 0 0 0 19.47 5.542 A 2.656 2.656 0 0 0 21.387 4.737 A 3.374 3.374 0 0 0 21.413 4.711 A 2.695 2.695 0 0 0 22.217 2.759 A 2.756 2.756 0 0 0 22.091 1.915 A 2.666 2.666 0 0 0 21.387 0.806 A 3.18 3.18 0 0 0 21.362 0.781 A 2.657 2.657 0 0 0 19.434 0 A 2.741 2.741 0 0 0 17.456 0.806 A 3.18 3.18 0 0 0 17.431 0.831 A 2.657 2.657 0 0 0 16.651 2.759 Q 16.651 3.907 15.845 4.737 A 2.741 2.741 0 0 1 13.868 5.542 A 2.657 2.657 0 0 1 11.94 4.762 A 3.18 3.18 0 0 1 11.914 4.737 A 2.741 2.741 0 0 1 11.109 2.759 A 2.756 2.756 0 0 0 10.982 1.915 A 2.666 2.666 0 0 0 10.279 0.806 A 3.18 3.18 0 0 0 10.253 0.781 A 2.657 2.657 0 0 0 8.326 0 A 2.741 2.741 0 0 0 6.348 0.806 A 3.18 3.18 0 0 0 6.323 0.831 A 2.657 2.657 0 0 0 5.542 2.759 Q 5.542 3.907 4.737 4.737 A 2.741 2.741 0 0 1 2.759 5.542 A 3.244 3.244 0 0 0 2.723 5.543 A 2.656 2.656 0 0 0 0.806 6.348 Q 0 7.178 0 8.326 A 3.244 3.244 0 0 0 0.001 8.361 A 2.656 2.656 0 0 0 0.806 10.279 A 3.204 3.204 0 0 0 0.857 10.33 A 2.614 2.614 0 0 0 2.759 11.109 A 3.244 3.244 0 0 0 2.723 11.109 A 2.656 2.656 0 0 0 0.806 11.914 A 3.18 3.18 0 0 0 0.781 11.94 A 2.657 2.657 0 0 0 0 13.868 A 3.383 3.383 0 0 0 0.001 13.904 A 2.683 2.683 0 0 0 0.806 15.845 A 3.18 3.18 0 0 0 0.831 15.87 A 2.657 2.657 0 0 0 2.759 16.651 A 2.695 2.695 0 0 1 4.711 17.455 A 3.374 3.374 0 0 1 4.737 17.481 A 2.656 2.656 0 0 1 5.542 19.398 A 3.244 3.244 0 0 1 5.542 19.434 A 2.741 2.741 0 0 0 6.348 21.412 Q 7.178 22.217 8.326 22.217 A 3.244 3.244 0 0 0 8.361 22.217 A 2.656 2.656 0 0 0 10.279 21.412 A 3.374 3.374 0 0 0 10.304 21.386 A 2.695 2.695 0 0 0 11.109 19.434 A 2.657 2.657 0 0 1 11.889 17.506 A 3.18 3.18 0 0 1 11.914 17.481 A 2.666 2.666 0 0 1 13.023 16.777 A 2.756 2.756 0 0 1 13.868 16.651 A 2.695 2.695 0 0 1 15.819 17.455 A 3.374 3.374 0 0 1 15.845 17.481 A 2.656 2.656 0 0 1 16.651 19.398 A 3.244 3.244 0 0 1 16.651 19.434 A 2.741 2.741 0 0 0 17.456 21.412 Q 18.287 22.217 19.434 22.217 A 3.244 3.244 0 0 0 19.47 22.217 A 2.656 2.656 0 0 0 21.387 21.412 A 3.374 3.374 0 0 0 21.413 21.386 A 2.695 2.695 0 0 0 22.217 19.434 A 2.756 2.756 0 0 0 22.091 18.59 A 2.666 2.666 0 0 0 21.387 17.481 A 3.204 3.204 0 0 0 21.336 17.43 A 2.614 2.614 0 0 0 19.434 16.651 Q 18.287 16.651 17.456 17.481 A 3.18 3.18 0 0 0 17.431 17.506 A 2.657 2.657 0 0 0 16.651 19.434 Q 16.651 20.581 15.845 21.412 A 2.741 2.741 0 0 1 13.868 22.217 A 2.657 2.657 0 0 1 11.94 21.437 A 3.18 3.18 0 0 1 11.914 21.412 A 2.741 2.741 0 0 1 11.109 19.434 A 2.756 2.756 0 0 0 10.982 18.59 A 2.666 2.666 0 0 0 10.279 17.481 A 3.204 3.204 0 0 0 10.228 17.43 A 2.614 2.614 0 0 0 8.326 16.651 Q 7.178 16.651 6.348 17.481 A 3.18 3.18 0 0 0 6.323 17.506 A 2.657 2.657 0 0 0 5.542 19.434 Q 5.542 20.581 4.737 21.412 A 2.741 2.741 0 0 1 2.759 22.217 A 3.244 3.244 0 0 0 2.723 22.217 A 2.656 2.656 0 0 0 0.806 23.023 Q 0 23.853 0 25 A 3.244 3.244 0 0 0 0.001 25.036 A 2.656 2.656 0 0 0 0.806 26.954 A 3.18 3.18 0 0 0 0.831 26.979 A 2.657 2.657 0 0 0 2.759 27.759 A 2.695 2.695 0 0 1 4.711 28.564 A 3.374 3.374 0 0 1 4.737 28.589 A 2.656 2.656 0 0 1 5.542 30.507 A 3.244 3.244 0 0 1 5.542 30.542 Q 5.542 31.69 4.737 32.52 A 2.741 2.741 0 0 1 2.759 33.326 A 3.244 3.244 0 0 0 2.723 33.326 A 2.656 2.656 0 0 0 0.806 34.131 Q 0 34.961 0 36.109 A 3.244 3.244 0 0 0 0.001 36.145 A 2.656 2.656 0 0 0 0.806 38.062 A 3.18 3.18 0 0 0 0.831 38.087 Z M 106.324 32.545 A 2.657 2.657 0 0 0 108.252 33.326 A 2.741 2.741 0 0 0 110.23 32.52 Q 111.036 31.69 111.036 30.542 A 3.244 3.244 0 0 0 111.035 30.507 A 2.656 2.656 0 0 0 110.23 28.589 A 3.374 3.374 0 0 0 110.204 28.564 A 2.695 2.695 0 0 0 108.252 27.759 A 2.657 2.657 0 0 1 106.324 26.979 A 3.18 3.18 0 0 1 106.299 26.954 A 2.656 2.656 0 0 1 105.494 25.036 A 3.244 3.244 0 0 1 105.494 25 Q 105.494 23.853 106.299 23.023 A 2.656 2.656 0 0 1 108.217 22.217 A 3.244 3.244 0 0 1 108.252 22.217 A 2.741 2.741 0 0 0 110.23 21.412 Q 111.036 20.581 111.036 19.434 A 3.244 3.244 0 0 0 111.035 19.398 A 2.656 2.656 0 0 0 110.23 17.481 A 3.374 3.374 0 0 0 110.204 17.455 A 2.695 2.695 0 0 0 108.252 16.651 A 2.756 2.756 0 0 0 107.408 16.777 A 2.666 2.666 0 0 0 106.299 17.481 A 3.18 3.18 0 0 0 106.274 17.506 A 2.657 2.657 0 0 0 105.494 19.434 A 2.741 2.741 0 0 0 106.299 21.412 A 3.18 3.18 0 0 0 106.324 21.437 A 2.657 2.657 0 0 0 108.252 22.217 Q 109.4 22.217 110.23 23.023 A 2.741 2.741 0 0 1 111.036 25 A 3.244 3.244 0 0 0 111.036 25.036 A 2.656 2.656 0 0 0 111.841 26.954 Q 112.671 27.759 113.819 27.759 A 3.244 3.244 0 0 0 113.855 27.759 A 2.656 2.656 0 0 0 115.772 26.954 A 3.204 3.204 0 0 0 115.823 26.903 A 2.614 2.614 0 0 0 116.602 25 A 3.244 3.244 0 0 0 116.602 25.036 A 2.656 2.656 0 0 0 117.408 26.954 A 3.18 3.18 0 0 0 117.433 26.979 A 2.657 2.657 0 0 0 119.361 27.759 A 2.741 2.741 0 0 0 121.338 26.954 A 3.18 3.18 0 0 0 121.363 26.928 A 2.657 2.657 0 0 0 122.144 25 Q 122.144 23.853 122.95 23.023 A 2.741 2.741 0 0 1 124.927 22.217 A 3.244 3.244 0 0 0 124.963 22.217 A 2.656 2.656 0 0 0 126.88 21.412 A 3.374 3.374 0 0 0 126.906 21.386 A 2.695 2.695 0 0 0 127.71 19.434 A 2.756 2.756 0 0 0 127.584 18.59 A 2.666 2.666 0 0 0 126.88 17.481 A 3.204 3.204 0 0 0 126.83 17.43 A 2.614 2.614 0 0 0 124.927 16.651 Q 123.78 16.651 122.95 17.481 A 3.18 3.18 0 0 0 122.925 17.506 A 2.657 2.657 0 0 0 122.144 19.434 A 2.741 2.741 0 0 0 122.95 21.412 Q 123.78 22.217 124.927 22.217 A 2.657 2.657 0 0 1 126.855 22.998 A 3.18 3.18 0 0 1 126.88 23.023 Q 127.71 23.853 127.71 25 A 2.614 2.614 0 0 1 126.931 26.903 A 3.204 3.204 0 0 1 126.88 26.954 A 2.656 2.656 0 0 1 124.963 27.759 A 3.244 3.244 0 0 1 124.927 27.759 Q 123.78 27.759 122.95 26.954 A 2.656 2.656 0 0 1 122.144 25.036 A 3.244 3.244 0 0 1 122.144 25 A 2.741 2.741 0 0 0 121.338 23.023 Q 120.508 22.217 119.361 22.217 A 3.244 3.244 0 0 0 119.325 22.217 A 2.656 2.656 0 0 0 117.408 23.023 Q 116.602 23.853 116.602 25 Q 116.602 23.853 115.772 23.023 A 3.18 3.18 0 0 0 115.747 22.998 A 2.657 2.657 0 0 0 113.819 22.217 A 2.741 2.741 0 0 0 111.841 23.023 Q 111.036 23.853 111.036 25 A 2.657 2.657 0 0 1 110.255 26.928 A 3.18 3.18 0 0 1 110.23 26.954 A 2.741 2.741 0 0 1 108.252 27.759 A 2.756 2.756 0 0 0 107.408 27.886 A 2.666 2.666 0 0 0 106.299 28.589 A 3.18 3.18 0 0 0 106.274 28.615 A 2.657 2.657 0 0 0 105.494 30.542 A 2.741 2.741 0 0 0 106.299 32.52 A 3.18 3.18 0 0 0 106.324 32.545 Z M 97.168 44.41 Q 96.021 44.41 95.191 43.604 A 2.741 2.741 0 0 1 94.385 41.626 A 2.657 2.657 0 0 1 95.166 39.699 A 3.18 3.18 0 0 1 95.191 39.673 A 2.741 2.741 0 0 1 97.168 38.868 A 3.244 3.244 0 0 0 97.204 38.867 A 2.656 2.656 0 0 0 99.121 38.062 A 3.204 3.204 0 0 0 99.173 38.011 A 2.614 2.614 0 0 0 99.952 36.109 Q 99.952 34.961 99.121 34.131 A 3.18 3.18 0 0 0 99.096 34.106 A 2.657 2.657 0 0 0 97.168 33.326 Q 96.021 33.326 95.191 32.52 A 2.741 2.741 0 0 1 94.385 30.542 A 2.657 2.657 0 0 1 95.166 28.615 A 3.18 3.18 0 0 1 95.191 28.589 Q 96.021 27.759 97.168 27.759 Q 96.021 27.759 95.191 26.954 A 2.656 2.656 0 0 1 94.385 25.036 A 3.244 3.244 0 0 1 94.385 25 Q 94.385 23.853 95.191 23.023 A 2.741 2.741 0 0 1 97.168 22.217 A 3.244 3.244 0 0 0 97.204 22.217 A 2.656 2.656 0 0 0 99.121 21.412 A 3.374 3.374 0 0 0 99.147 21.386 A 2.695 2.695 0 0 0 99.952 19.434 A 2.756 2.756 0 0 0 99.825 18.59 A 2.666 2.666 0 0 0 99.121 17.481 A 3.204 3.204 0 0 0 99.071 17.43 A 2.614 2.614 0 0 0 97.168 16.651 A 3.244 3.244 0 0 0 97.204 16.651 A 2.656 2.656 0 0 0 99.121 15.845 Q 99.952 15.039 99.952 13.868 A 2.756 2.756 0 0 0 99.825 13.023 A 2.666 2.666 0 0 0 99.121 11.914 A 3.18 3.18 0 0 0 99.096 11.889 A 2.657 2.657 0 0 0 97.168 11.109 A 2.741 2.741 0 0 0 95.191 11.914 A 3.18 3.18 0 0 0 95.166 11.94 A 2.657 2.657 0 0 0 94.385 13.868 A 3.383 3.383 0 0 0 94.385 13.904 A 2.683 2.683 0 0 0 95.191 15.845 Q 96.021 16.651 97.168 16.651 Q 96.021 16.651 95.191 17.481 A 3.18 3.18 0 0 0 95.166 17.506 A 2.657 2.657 0 0 0 94.385 19.434 A 2.741 2.741 0 0 0 95.191 21.412 Q 96.021 22.217 97.168 22.217 A 2.657 2.657 0 0 1 99.096 22.998 A 3.18 3.18 0 0 1 99.121 23.023 Q 99.952 23.853 99.952 25 A 2.614 2.614 0 0 1 99.173 26.903 A 3.204 3.204 0 0 1 99.121 26.954 A 2.656 2.656 0 0 1 97.204 27.759 A 3.244 3.244 0 0 1 97.168 27.759 A 2.614 2.614 0 0 1 99.071 28.538 A 3.204 3.204 0 0 1 99.121 28.589 A 2.666 2.666 0 0 1 99.825 29.698 A 2.756 2.756 0 0 1 99.952 30.542 A 2.695 2.695 0 0 1 99.147 32.494 A 3.374 3.374 0 0 1 99.121 32.52 A 2.656 2.656 0 0 1 97.204 33.325 A 3.244 3.244 0 0 1 97.168 33.326 A 2.741 2.741 0 0 0 95.191 34.131 Q 94.385 34.961 94.385 36.109 A 3.244 3.244 0 0 0 94.385 36.145 A 2.656 2.656 0 0 0 95.191 38.062 Q 96.021 38.868 97.168 38.868 A 2.657 2.657 0 0 1 99.096 39.648 A 3.18 3.18 0 0 1 99.121 39.673 A 2.666 2.666 0 0 1 99.825 40.782 A 2.756 2.756 0 0 1 99.952 41.626 A 2.695 2.695 0 0 1 99.147 43.578 A 3.374 3.374 0 0 1 99.121 43.604 A 2.656 2.656 0 0 1 97.204 44.409 A 3.244 3.244 0 0 1 97.168 44.41 Z M 34.157 38.087 A 2.657 2.657 0 0 0 36.084 38.868 A 2.741 2.741 0 0 0 38.062 38.062 A 3.18 3.18 0 0 0 38.087 38.037 A 2.657 2.657 0 0 0 38.868 36.109 A 2.741 2.741 0 0 0 38.062 34.131 Q 37.232 33.326 36.084 33.326 A 2.657 2.657 0 0 1 34.157 32.545 A 3.18 3.18 0 0 1 34.131 32.52 A 2.741 2.741 0 0 1 33.326 30.542 A 2.657 2.657 0 0 1 34.106 28.615 A 3.18 3.18 0 0 1 34.131 28.589 A 2.666 2.666 0 0 1 35.24 27.886 A 2.756 2.756 0 0 1 36.084 27.759 A 2.741 2.741 0 0 0 38.062 26.954 A 3.18 3.18 0 0 0 38.087 26.928 A 2.657 2.657 0 0 0 38.868 25 A 2.741 2.741 0 0 0 38.062 23.023 Q 37.232 22.217 36.084 22.217 A 2.657 2.657 0 0 1 34.157 21.437 A 3.18 3.18 0 0 1 34.131 21.412 A 2.741 2.741 0 0 1 33.326 19.434 A 2.657 2.657 0 0 1 34.106 17.506 A 3.18 3.18 0 0 1 34.131 17.481 A 2.666 2.666 0 0 1 35.24 16.777 A 2.756 2.756 0 0 1 36.084 16.651 A 2.741 2.741 0 0 0 38.062 15.845 A 2.728 2.728 0 0 0 38.63 15.032 A 2.808 2.808 0 0 0 38.868 13.868 A 3.244 3.244 0 0 0 38.867 13.832 A 2.656 2.656 0 0 0 38.062 11.914 Q 37.232 11.109 36.084 11.109 A 3.244 3.244 0 0 0 36.049 11.109 A 2.656 2.656 0 0 0 34.131 11.914 A 3.18 3.18 0 0 0 34.106 11.94 A 2.657 2.657 0 0 0 33.326 13.868 A 3.383 3.383 0 0 0 33.326 13.904 A 2.683 2.683 0 0 0 34.131 15.845 A 3.18 3.18 0 0 0 34.157 15.87 A 2.657 2.657 0 0 0 36.084 16.651 A 2.695 2.695 0 0 1 38.036 17.455 A 3.374 3.374 0 0 1 38.062 17.481 A 2.656 2.656 0 0 1 38.867 19.398 A 3.244 3.244 0 0 1 38.868 19.434 A 2.741 2.741 0 0 0 39.673 21.412 Q 40.503 22.217 41.651 22.217 A 3.244 3.244 0 0 0 41.687 22.217 A 2.656 2.656 0 0 0 43.604 21.412 A 3.374 3.374 0 0 0 43.63 21.386 A 2.695 2.695 0 0 0 44.434 19.434 A 2.756 2.756 0 0 0 44.307 18.59 A 2.666 2.666 0 0 0 43.604 17.481 A 3.204 3.204 0 0 0 43.553 17.43 A 2.614 2.614 0 0 0 41.651 16.651 Q 40.503 16.651 39.673 17.481 A 3.18 3.18 0 0 0 39.648 17.506 A 2.657 2.657 0 0 0 38.868 19.434 Q 38.868 20.581 38.062 21.412 A 2.741 2.741 0 0 1 36.084 22.217 A 3.244 3.244 0 0 0 36.049 22.217 A 2.656 2.656 0 0 0 34.131 23.023 Q 33.326 23.853 33.326 25 A 3.244 3.244 0 0 0 33.326 25.036 A 2.656 2.656 0 0 0 34.131 26.954 A 3.18 3.18 0 0 0 34.157 26.979 A 2.657 2.657 0 0 0 36.084 27.759 A 2.695 2.695 0 0 1 38.036 28.564 A 3.374 3.374 0 0 1 38.062 28.589 A 2.656 2.656 0 0 1 38.867 30.507 A 3.244 3.244 0 0 1 38.868 30.542 Q 38.868 31.69 38.062 32.52 A 2.741 2.741 0 0 1 36.084 33.326 A 3.244 3.244 0 0 0 36.049 33.326 A 2.656 2.656 0 0 0 34.131 34.131 Q 33.326 34.961 33.326 36.109 A 3.244 3.244 0 0 0 33.326 36.145 A 2.656 2.656 0 0 0 34.131 38.062 A 3.18 3.18 0 0 0 34.157 38.087 Z M 169.336 33.326 Q 168.189 33.326 167.359 32.52 A 2.741 2.741 0 0 1 166.553 30.542 A 2.657 2.657 0 0 1 167.334 28.615 A 3.18 3.18 0 0 1 167.359 28.589 Q 168.189 27.759 169.336 27.759 Q 168.189 27.759 167.359 26.954 A 2.656 2.656 0 0 1 166.553 25.036 A 3.244 3.244 0 0 1 166.553 25 Q 166.553 23.853 167.359 23.023 A 2.741 2.741 0 0 1 169.336 22.217 A 3.244 3.244 0 0 0 169.372 22.217 A 2.656 2.656 0 0 0 171.289 21.412 A 3.374 3.374 0 0 0 171.315 21.386 A 2.695 2.695 0 0 0 172.12 19.434 A 2.756 2.756 0 0 0 171.993 18.59 A 2.666 2.666 0 0 0 171.289 17.481 A 3.204 3.204 0 0 0 171.239 17.43 A 2.614 2.614 0 0 0 169.336 16.651 A 3.244 3.244 0 0 0 169.372 16.651 A 2.656 2.656 0 0 0 171.289 15.845 Q 172.12 15.039 172.12 13.868 A 2.756 2.756 0 0 0 171.993 13.023 A 2.666 2.666 0 0 0 171.289 11.914 A 3.18 3.18 0 0 0 171.264 11.889 A 2.657 2.657 0 0 0 169.336 11.109 A 2.741 2.741 0 0 0 167.359 11.914 A 3.18 3.18 0 0 0 167.334 11.94 A 2.657 2.657 0 0 0 166.553 13.868 A 3.383 3.383 0 0 0 166.553 13.904 A 2.683 2.683 0 0 0 167.359 15.845 Q 168.189 16.651 169.336 16.651 Q 168.189 16.651 167.359 17.481 A 3.18 3.18 0 0 0 167.334 17.506 A 2.657 2.657 0 0 0 166.553 19.434 A 2.741 2.741 0 0 0 167.359 21.412 Q 168.189 22.217 169.336 22.217 A 2.657 2.657 0 0 1 171.264 22.998 A 3.18 3.18 0 0 1 171.289 23.023 Q 172.12 23.853 172.12 25 A 2.614 2.614 0 0 1 171.341 26.903 A 3.204 3.204 0 0 1 171.289 26.954 A 2.656 2.656 0 0 1 169.372 27.759 A 3.244 3.244 0 0 1 169.336 27.759 A 2.614 2.614 0 0 1 171.239 28.538 A 3.204 3.204 0 0 1 171.289 28.589 A 2.666 2.666 0 0 1 171.993 29.698 A 2.756 2.756 0 0 1 172.12 30.542 A 2.695 2.695 0 0 1 171.315 32.494 A 3.374 3.374 0 0 1 171.289 32.52 A 2.656 2.656 0 0 1 169.372 33.325 A 3.244 3.244 0 0 1 169.336 33.326 Z M 80.518 33.326 Q 79.371 33.326 78.54 32.52 A 2.741 2.741 0 0 1 77.735 30.542 A 2.657 2.657 0 0 1 78.515 28.615 A 3.18 3.18 0 0 1 78.54 28.589 Q 79.371 27.759 80.518 27.759 Q 79.371 27.759 78.54 26.954 A 2.656 2.656 0 0 1 77.735 25.036 A 3.244 3.244 0 0 1 77.735 25 Q 77.735 23.853 78.54 23.023 A 2.741 2.741 0 0 1 80.518 22.217 A 3.244 3.244 0 0 0 80.554 22.217 A 2.656 2.656 0 0 0 82.471 21.412 A 3.374 3.374 0 0 0 82.497 21.386 A 2.695 2.695 0 0 0 83.301 19.434 A 2.756 2.756 0 0 0 83.175 18.59 A 2.666 2.666 0 0 0 82.471 17.481 A 3.204 3.204 0 0 0 82.42 17.43 A 2.614 2.614 0 0 0 80.518 16.651 Q 79.371 16.651 78.54 17.481 A 3.18 3.18 0 0 0 78.515 17.506 A 2.657 2.657 0 0 0 77.735 19.434 A 2.741 2.741 0 0 0 78.54 21.412 Q 79.371 22.217 80.518 22.217 A 2.657 2.657 0 0 1 82.446 22.998 A 3.18 3.18 0 0 1 82.471 23.023 Q 83.301 23.853 83.301 25 A 2.614 2.614 0 0 1 82.522 26.903 A 3.204 3.204 0 0 1 82.471 26.954 A 2.656 2.656 0 0 1 80.554 27.759 A 3.244 3.244 0 0 1 80.518 27.759 A 2.614 2.614 0 0 1 82.42 28.538 A 3.204 3.204 0 0 1 82.471 28.589 A 2.666 2.666 0 0 1 83.175 29.698 A 2.756 2.756 0 0 1 83.301 30.542 A 2.695 2.695 0 0 1 82.497 32.494 A 3.374 3.374 0 0 1 82.471 32.52 A 2.656 2.656 0 0 1 80.554 33.325 A 3.244 3.244 0 0 1 80.518 33.326 Z M 61.915 32.545 A 2.657 2.657 0 0 0 63.843 33.326 A 2.741 2.741 0 0 0 65.821 32.52 Q 66.626 31.69 66.626 30.542 A 3.244 3.244 0 0 0 66.626 30.507 A 2.656 2.656 0 0 0 65.821 28.589 A 3.374 3.374 0 0 0 65.795 28.564 A 2.695 2.695 0 0 0 63.843 27.759 A 2.657 2.657 0 0 1 61.915 26.979 A 3.18 3.18 0 0 1 61.89 26.954 A 2.656 2.656 0 0 1 61.085 25.036 A 3.244 3.244 0 0 1 61.084 25 Q 61.084 23.853 61.89 23.023 A 2.656 2.656 0 0 1 63.807 22.217 A 3.244 3.244 0 0 1 63.843 22.217 A 2.741 2.741 0 0 0 65.821 21.412 Q 66.626 20.581 66.626 19.434 A 3.244 3.244 0 0 0 66.626 19.398 A 2.656 2.656 0 0 0 65.821 17.481 A 3.374 3.374 0 0 0 65.795 17.455 A 2.695 2.695 0 0 0 63.843 16.651 A 2.756 2.756 0 0 0 62.999 16.777 A 2.666 2.666 0 0 0 61.89 17.481 A 3.18 3.18 0 0 0 61.865 17.506 A 2.657 2.657 0 0 0 61.084 19.434 A 2.741 2.741 0 0 0 61.89 21.412 A 3.18 3.18 0 0 0 61.915 21.437 A 2.657 2.657 0 0 0 63.843 22.217 Q 64.991 22.217 65.821 23.023 A 2.741 2.741 0 0 1 66.626 25 A 2.657 2.657 0 0 1 65.846 26.928 A 3.18 3.18 0 0 1 65.821 26.954 A 2.741 2.741 0 0 1 63.843 27.759 A 2.756 2.756 0 0 0 62.999 27.886 A 2.666 2.666 0 0 0 61.89 28.589 A 3.18 3.18 0 0 0 61.865 28.615 A 2.657 2.657 0 0 0 61.084 30.542 A 2.741 2.741 0 0 0 61.89 32.52 A 3.18 3.18 0 0 0 61.915 32.545 Z M 134.083 32.545 A 2.657 2.657 0 0 0 136.011 33.326 A 2.741 2.741 0 0 0 137.989 32.52 Q 138.794 31.69 138.794 30.542 A 3.244 3.244 0 0 0 138.794 30.507 A 2.656 2.656 0 0 0 137.989 28.589 A 3.374 3.374 0 0 0 137.963 28.564 A 2.695 2.695 0 0 0 136.011 27.759 A 2.657 2.657 0 0 1 134.083 26.979 A 3.18 3.18 0 0 1 134.058 26.954 A 2.656 2.656 0 0 1 133.253 25.036 A 3.244 3.244 0 0 1 133.252 25 Q 133.252 23.853 134.058 23.023 A 2.656 2.656 0 0 1 135.975 22.217 A 3.244 3.244 0 0 1 136.011 22.217 A 2.741 2.741 0 0 0 137.989 21.412 Q 138.794 20.581 138.794 19.434 A 3.244 3.244 0 0 0 138.794 19.398 A 2.656 2.656 0 0 0 137.989 17.481 A 3.374 3.374 0 0 0 137.963 17.455 A 2.695 2.695 0 0 0 136.011 16.651 A 2.756 2.756 0 0 0 135.167 16.777 A 2.666 2.666 0 0 0 134.058 17.481 A 3.18 3.18 0 0 0 134.033 17.506 A 2.657 2.657 0 0 0 133.252 19.434 A 2.741 2.741 0 0 0 134.058 21.412 A 3.18 3.18 0 0 0 134.083 21.437 A 2.657 2.657 0 0 0 136.011 22.217 Q 137.159 22.217 137.989 23.023 A 2.741 2.741 0 0 1 138.794 25 A 2.657 2.657 0 0 1 138.014 26.928 A 3.18 3.18 0 0 1 137.989 26.954 A 2.741 2.741 0 0 1 136.011 27.759 A 2.756 2.756 0 0 0 135.167 27.886 A 2.666 2.666 0 0 0 134.058 28.589 A 3.18 3.18 0 0 0 134.033 28.615 A 2.657 2.657 0 0 0 133.252 30.542 A 2.741 2.741 0 0 0 134.058 32.52 A 3.18 3.18 0 0 0 134.083 32.545 Z M 113.819 38.868 Q 112.671 38.868 111.841 38.062 A 2.656 2.656 0 0 1 111.036 36.145 A 3.244 3.244 0 0 1 111.036 36.109 Q 111.036 34.961 111.841 34.131 A 2.741 2.741 0 0 1 113.819 33.326 A 2.657 2.657 0 0 1 115.747 34.106 A 3.18 3.18 0 0 1 115.772 34.131 Q 116.602 34.961 116.602 36.109 Q 116.602 34.961 117.408 34.131 A 2.656 2.656 0 0 1 119.325 33.326 A 3.244 3.244 0 0 1 119.361 33.326 Q 120.508 33.326 121.338 34.131 A 2.741 2.741 0 0 1 122.144 36.109 A 3.244 3.244 0 0 0 122.144 36.145 A 2.656 2.656 0 0 0 122.95 38.062 Q 123.78 38.868 124.927 38.868 A 3.244 3.244 0 0 0 124.963 38.867 A 2.656 2.656 0 0 0 126.88 38.062 A 3.204 3.204 0 0 0 126.931 38.011 A 2.614 2.614 0 0 0 127.71 36.109 Q 127.71 34.961 126.88 34.131 A 3.18 3.18 0 0 0 126.855 34.106 A 2.657 2.657 0 0 0 124.927 33.326 A 2.741 2.741 0 0 0 122.95 34.131 Q 122.144 34.961 122.144 36.109 A 2.657 2.657 0 0 1 121.363 38.037 A 3.18 3.18 0 0 1 121.338 38.062 A 2.741 2.741 0 0 1 119.361 38.868 A 2.657 2.657 0 0 1 117.433 38.087 A 3.18 3.18 0 0 1 117.408 38.062 A 2.656 2.656 0 0 1 116.602 36.145 A 3.244 3.244 0 0 1 116.602 36.109 A 2.614 2.614 0 0 1 115.823 38.011 A 3.204 3.204 0 0 1 115.772 38.062 A 2.656 2.656 0 0 1 113.855 38.867 A 3.244 3.244 0 0 1 113.819 38.868 Z M 141.578 38.868 Q 140.43 38.868 139.6 38.062 A 2.656 2.656 0 0 1 138.795 36.145 A 3.244 3.244 0 0 1 138.794 36.109 Q 138.794 34.961 139.6 34.131 A 2.741 2.741 0 0 1 141.578 33.326 A 2.657 2.657 0 0 1 143.505 34.106 A 3.18 3.18 0 0 1 143.531 34.131 Q 144.361 34.961 144.361 36.109 Q 144.361 34.961 145.166 34.131 A 2.656 2.656 0 0 1 147.084 33.326 A 3.244 3.244 0 0 1 147.12 33.326 Q 148.267 33.326 149.097 34.131 A 2.741 2.741 0 0 1 149.903 36.109 A 3.244 3.244 0 0 0 149.903 36.145 A 2.656 2.656 0 0 0 150.708 38.062 Q 151.538 38.868 152.686 38.868 A 3.244 3.244 0 0 0 152.722 38.867 A 2.656 2.656 0 0 0 154.639 38.062 A 3.204 3.204 0 0 0 154.69 38.011 A 2.614 2.614 0 0 0 155.469 36.109 Q 155.469 34.961 154.639 34.131 A 3.18 3.18 0 0 0 154.614 34.106 A 2.657 2.657 0 0 0 152.686 33.326 A 2.741 2.741 0 0 0 150.708 34.131 Q 149.903 34.961 149.903 36.109 A 2.657 2.657 0 0 1 149.122 38.037 A 3.18 3.18 0 0 1 149.097 38.062 A 2.741 2.741 0 0 1 147.12 38.868 A 2.657 2.657 0 0 1 145.192 38.087 A 3.18 3.18 0 0 1 145.166 38.062 A 2.656 2.656 0 0 1 144.361 36.145 A 3.244 3.244 0 0 1 144.361 36.109 A 2.614 2.614 0 0 1 143.582 38.011 A 3.204 3.204 0 0 1 143.531 38.062 A 2.656 2.656 0 0 1 141.613 38.867 A 3.244 3.244 0 0 1 141.578 38.868 Z M 189.601 38.087 A 2.657 2.657 0 0 0 191.529 38.868 A 2.741 2.741 0 0 0 193.506 38.062 A 3.18 3.18 0 0 0 193.531 38.037 A 2.657 2.657 0 0 0 194.312 36.109 Q 194.312 34.961 195.118 34.131 A 2.741 2.741 0 0 1 197.095 33.326 A 2.657 2.657 0 0 1 199.023 34.106 A 3.18 3.18 0 0 1 199.048 34.131 Q 199.878 34.961 199.878 36.109 Q 199.878 34.961 200.684 34.131 A 2.656 2.656 0 0 1 202.601 33.326 A 3.244 3.244 0 0 1 202.637 33.326 Q 203.785 33.326 204.615 34.131 A 2.741 2.741 0 0 1 205.42 36.109 A 2.657 2.657 0 0 1 204.64 38.037 A 3.18 3.18 0 0 1 204.615 38.062 A 2.741 2.741 0 0 1 202.637 38.868 A 2.657 2.657 0 0 1 200.709 38.087 A 3.18 3.18 0 0 1 200.684 38.062 A 2.656 2.656 0 0 1 199.879 36.145 A 3.244 3.244 0 0 1 199.878 36.109 A 2.614 2.614 0 0 1 199.099 38.011 A 3.204 3.204 0 0 1 199.048 38.062 A 2.656 2.656 0 0 1 197.131 38.867 A 3.244 3.244 0 0 1 197.095 38.868 Q 195.948 38.868 195.118 38.062 A 2.656 2.656 0 0 1 194.312 36.145 A 3.244 3.244 0 0 1 194.312 36.109 A 2.741 2.741 0 0 0 193.506 34.131 Q 192.676 33.326 191.529 33.326 A 3.244 3.244 0 0 0 191.493 33.326 A 2.656 2.656 0 0 0 189.576 34.131 Q 188.77 34.961 188.77 36.109 A 3.244 3.244 0 0 0 188.77 36.145 A 2.656 2.656 0 0 0 189.576 38.062 A 3.18 3.18 0 0 0 189.601 38.087 Z M 197.095 27.759 Q 195.948 27.759 195.118 26.954 A 2.656 2.656 0 0 1 194.312 25.036 A 3.244 3.244 0 0 1 194.312 25 Q 194.312 23.853 195.118 23.023 A 2.741 2.741 0 0 1 197.095 22.217 A 2.657 2.657 0 0 1 199.023 22.998 A 3.18 3.18 0 0 1 199.048 23.023 Q 199.878 23.853 199.878 25 Q 199.878 23.853 200.684 23.023 A 2.656 2.656 0 0 1 202.601 22.217 A 3.244 3.244 0 0 1 202.637 22.217 Q 203.785 22.217 204.615 23.023 A 2.741 2.741 0 0 1 205.42 25 A 2.657 2.657 0 0 1 204.64 26.928 A 3.18 3.18 0 0 1 204.615 26.954 A 2.741 2.741 0 0 1 202.637 27.759 A 2.657 2.657 0 0 1 200.709 26.979 A 3.18 3.18 0 0 1 200.684 26.954 A 2.656 2.656 0 0 1 199.879 25.036 A 3.244 3.244 0 0 1 199.878 25 A 2.614 2.614 0 0 1 199.099 26.903 A 3.204 3.204 0 0 1 199.048 26.954 A 2.656 2.656 0 0 1 197.131 27.759 A 3.244 3.244 0 0 1 197.095 27.759 Z M 69.41 38.868 Q 68.262 38.868 67.432 38.062 A 2.656 2.656 0 0 1 66.627 36.145 A 3.244 3.244 0 0 1 66.626 36.109 Q 66.626 34.961 67.432 34.131 A 2.741 2.741 0 0 1 69.41 33.326 A 2.657 2.657 0 0 1 71.337 34.106 A 3.18 3.18 0 0 1 71.363 34.131 Q 72.193 34.961 72.193 36.109 Q 72.193 34.961 72.998 34.131 A 2.656 2.656 0 0 1 74.916 33.326 A 3.244 3.244 0 0 1 74.952 33.326 Q 76.099 33.326 76.929 34.131 A 2.741 2.741 0 0 1 77.735 36.109 A 2.657 2.657 0 0 1 76.954 38.037 A 3.18 3.18 0 0 1 76.929 38.062 A 2.741 2.741 0 0 1 74.952 38.868 A 2.657 2.657 0 0 1 73.024 38.087 A 3.18 3.18 0 0 1 72.998 38.062 A 2.656 2.656 0 0 1 72.193 36.145 A 3.244 3.244 0 0 1 72.193 36.109 A 2.614 2.614 0 0 1 71.414 38.011 A 3.204 3.204 0 0 1 71.363 38.062 A 2.656 2.656 0 0 1 69.445 38.867 A 3.244 3.244 0 0 1 69.41 38.868 Z M 172.95 38.087 A 2.657 2.657 0 0 0 174.878 38.868 A 2.741 2.741 0 0 0 176.856 38.062 A 3.18 3.18 0 0 0 176.881 38.037 A 2.657 2.657 0 0 0 177.662 36.109 Q 177.662 34.961 178.467 34.131 A 2.741 2.741 0 0 1 180.445 33.326 A 2.657 2.657 0 0 1 182.373 34.106 A 3.18 3.18 0 0 1 182.398 34.131 Q 183.228 34.961 183.228 36.109 A 2.614 2.614 0 0 1 182.449 38.011 A 3.204 3.204 0 0 1 182.398 38.062 A 2.656 2.656 0 0 1 180.481 38.867 A 3.244 3.244 0 0 1 180.445 38.868 Q 179.297 38.868 178.467 38.062 A 2.656 2.656 0 0 1 177.662 36.145 A 3.244 3.244 0 0 1 177.662 36.109 A 2.741 2.741 0 0 0 176.856 34.131 Q 176.026 33.326 174.878 33.326 A 3.244 3.244 0 0 0 174.843 33.326 A 2.656 2.656 0 0 0 172.925 34.131 Q 172.12 34.961 172.12 36.109 A 3.244 3.244 0 0 0 172.12 36.145 A 2.656 2.656 0 0 0 172.925 38.062 A 3.18 3.18 0 0 0 172.95 38.087 Z M 171.264 11.889 A 2.657 2.657 0 0 0 169.336 11.109 A 2.756 2.756 0 0 0 170.181 10.982 A 2.666 2.666 0 0 0 171.289 10.279 A 3.204 3.204 0 0 0 171.341 10.228 A 2.614 2.614 0 0 0 172.12 8.326 Q 172.12 7.178 171.289 6.348 A 3.18 3.18 0 0 0 171.264 6.323 A 2.657 2.657 0 0 0 169.336 5.542 A 2.741 2.741 0 0 0 167.359 6.348 Q 166.553 7.178 166.553 8.326 A 3.244 3.244 0 0 0 166.553 8.361 A 2.656 2.656 0 0 0 167.359 10.279 A 3.374 3.374 0 0 0 167.385 10.304 A 2.695 2.695 0 0 0 169.336 11.109 M 208.204 33.326 Q 207.056 33.326 206.226 32.52 A 2.741 2.741 0 0 1 205.42 30.542 A 2.657 2.657 0 0 1 206.201 28.615 A 3.18 3.18 0 0 1 206.226 28.589 Q 207.056 27.759 208.204 27.759 A 2.614 2.614 0 0 1 210.106 28.538 A 3.204 3.204 0 0 1 210.157 28.589 A 2.666 2.666 0 0 1 210.86 29.698 A 2.756 2.756 0 0 1 210.987 30.542 A 2.695 2.695 0 0 1 210.182 32.494 A 3.374 3.374 0 0 1 210.157 32.52 A 2.656 2.656 0 0 1 208.239 33.325 A 3.244 3.244 0 0 1 208.204 33.326 Z M 25 11.109 Q 23.829 11.109 23.023 10.279 A 2.656 2.656 0 0 1 22.217 8.361 A 3.244 3.244 0 0 1 22.217 8.326 Q 22.217 7.178 23.023 6.348 A 2.683 2.683 0 0 1 24.964 5.543 A 3.383 3.383 0 0 1 25 5.542 A 2.657 2.657 0 0 1 26.928 6.323 A 3.18 3.18 0 0 1 26.954 6.348 A 2.741 2.741 0 0 1 27.759 8.326 A 2.657 2.657 0 0 1 26.979 10.253 A 3.18 3.18 0 0 1 26.954 10.279 A 2.666 2.666 0 0 1 25.845 10.982 A 2.756 2.756 0 0 1 25 11.109 Z M 52.759 16.651 Q 51.612 16.651 50.782 15.845 A 2.683 2.683 0 0 1 49.976 13.904 A 3.383 3.383 0 0 1 49.976 13.868 A 2.657 2.657 0 0 1 50.757 11.94 A 3.18 3.18 0 0 1 50.782 11.914 A 2.741 2.741 0 0 1 52.759 11.109 A 2.657 2.657 0 0 1 54.687 11.889 A 3.18 3.18 0 0 1 54.712 11.914 A 2.666 2.666 0 0 1 55.416 13.023 A 2.756 2.756 0 0 1 55.542 13.868 Q 55.542 15.039 54.712 15.845 A 2.656 2.656 0 0 1 52.795 16.651 A 3.244 3.244 0 0 1 52.759 16.651 Z M 152.686 16.651 Q 151.538 16.651 150.708 15.845 A 2.683 2.683 0 0 1 149.903 13.904 A 3.383 3.383 0 0 1 149.903 13.868 A 2.657 2.657 0 0 1 150.683 11.94 A 3.18 3.18 0 0 1 150.708 11.914 A 2.741 2.741 0 0 1 152.686 11.109 A 2.657 2.657 0 0 1 154.614 11.889 A 3.18 3.18 0 0 1 154.639 11.914 A 2.666 2.666 0 0 1 155.342 13.023 A 2.756 2.756 0 0 1 155.469 13.868 Q 155.469 15.039 154.639 15.845 A 2.656 2.656 0 0 1 152.722 16.651 A 3.244 3.244 0 0 1 152.686 16.651 Z M 180.445 16.651 Q 179.297 16.651 178.467 15.845 A 2.683 2.683 0 0 1 177.662 13.904 A 3.383 3.383 0 0 1 177.662 13.868 A 2.657 2.657 0 0 1 178.442 11.94 A 3.18 3.18 0 0 1 178.467 11.914 A 2.741 2.741 0 0 1 180.445 11.109 A 2.657 2.657 0 0 1 182.373 11.889 A 3.18 3.18 0 0 1 182.398 11.914 A 2.666 2.666 0 0 1 183.101 13.023 A 2.756 2.756 0 0 1 183.228 13.868 Q 183.228 15.039 182.398 15.845 A 2.656 2.656 0 0 1 180.481 16.651 A 3.244 3.244 0 0 1 180.445 16.651 Z M 208.204 16.651 Q 207.056 16.651 206.226 15.845 A 2.683 2.683 0 0 1 205.421 13.904 A 3.383 3.383 0 0 1 205.42 13.868 A 2.657 2.657 0 0 1 206.201 11.94 A 3.18 3.18 0 0 1 206.226 11.914 A 2.741 2.741 0 0 1 208.204 11.109 A 2.657 2.657 0 0 1 210.131 11.889 A 3.18 3.18 0 0 1 210.157 11.914 A 2.666 2.666 0 0 1 210.86 13.023 A 2.756 2.756 0 0 1 210.987 13.868 Q 210.987 15.039 210.157 15.845 A 2.656 2.656 0 0 1 208.239 16.651 A 3.244 3.244 0 0 1 208.204 16.651 Z M 69.41 16.651 Q 68.262 16.651 67.432 15.845 A 2.683 2.683 0 0 1 66.627 13.904 A 3.383 3.383 0 0 1 66.626 13.868 A 2.657 2.657 0 0 1 67.407 11.94 A 3.18 3.18 0 0 1 67.432 11.914 A 2.741 2.741 0 0 1 69.41 11.109 A 2.657 2.657 0 0 1 71.337 11.889 A 3.18 3.18 0 0 1 71.363 11.914 A 2.666 2.666 0 0 1 72.066 13.023 A 2.756 2.756 0 0 1 72.193 13.868 Q 72.193 15.039 71.363 15.845 A 2.656 2.656 0 0 1 69.445 16.651 A 3.244 3.244 0 0 1 69.41 16.651 Z M 113.819 16.651 Q 112.671 16.651 111.841 15.845 A 2.683 2.683 0 0 1 111.036 13.904 A 3.383 3.383 0 0 1 111.036 13.868 A 2.657 2.657 0 0 1 111.816 11.94 A 3.18 3.18 0 0 1 111.841 11.914 A 2.741 2.741 0 0 1 113.819 11.109 A 2.657 2.657 0 0 1 115.747 11.889 A 3.18 3.18 0 0 1 115.772 11.914 A 2.666 2.666 0 0 1 116.475 13.023 A 2.756 2.756 0 0 1 116.602 13.868 Q 116.602 15.039 115.772 15.845 A 2.656 2.656 0 0 1 113.855 16.651 A 3.244 3.244 0 0 1 113.819 16.651 Z M 141.578 16.651 Q 140.43 16.651 139.6 15.845 A 2.683 2.683 0 0 1 138.795 13.904 A 3.383 3.383 0 0 1 138.794 13.868 A 2.657 2.657 0 0 1 139.575 11.94 A 3.18 3.18 0 0 1 139.6 11.914 A 2.741 2.741 0 0 1 141.578 11.109 A 2.657 2.657 0 0 1 143.505 11.889 A 3.18 3.18 0 0 1 143.531 11.914 A 2.666 2.666 0 0 1 144.234 13.023 A 2.756 2.756 0 0 1 144.361 13.868 Q 144.361 15.039 143.531 15.845 A 2.656 2.656 0 0 1 141.613 16.651 A 3.244 3.244 0 0 1 141.578 16.651 Z M 197.095 16.651 Q 195.948 16.651 195.118 15.845 A 2.683 2.683 0 0 1 194.312 13.904 A 3.383 3.383 0 0 1 194.312 13.868 A 2.657 2.657 0 0 1 195.093 11.94 A 3.18 3.18 0 0 1 195.118 11.914 A 2.741 2.741 0 0 1 197.095 11.109 A 2.657 2.657 0 0 1 199.023 11.889 A 3.18 3.18 0 0 1 199.048 11.914 A 2.666 2.666 0 0 1 199.752 13.023 A 2.756 2.756 0 0 1 199.878 13.868 Q 199.878 15.039 199.048 15.845 A 2.656 2.656 0 0 1 197.131 16.651 A 3.244 3.244 0 0 1 197.095 16.651 Z M 97.168 5.542 Q 96.021 5.542 95.191 4.737 A 2.741 2.741 0 0 1 94.385 2.759 A 2.657 2.657 0 0 1 95.166 0.831 A 3.18 3.18 0 0 1 95.191 0.806 A 2.741 2.741 0 0 1 97.168 0 A 2.657 2.657 0 0 1 99.096 0.781 A 3.18 3.18 0 0 1 99.121 0.806 A 2.666 2.666 0 0 1 99.825 1.915 A 2.756 2.756 0 0 1 99.952 2.759 A 2.695 2.695 0 0 1 99.147 4.711 A 3.374 3.374 0 0 1 99.121 4.737 A 2.656 2.656 0 0 1 97.204 5.542 A 3.244 3.244 0 0 1 97.168 5.542 Z M 189.601 21.437 A 2.657 2.657 0 0 0 191.529 22.217 A 2.741 2.741 0 0 0 193.506 21.412 Q 194.312 20.581 194.312 19.434 A 3.244 3.244 0 0 0 194.312 19.398 A 2.656 2.656 0 0 0 193.506 17.481 A 3.374 3.374 0 0 0 193.48 17.455 A 2.695 2.695 0 0 0 191.529 16.651 A 2.756 2.756 0 0 0 190.684 16.777 A 2.666 2.666 0 0 0 189.576 17.481 A 3.18 3.18 0 0 0 189.551 17.506 A 2.657 2.657 0 0 0 188.77 19.434 A 2.741 2.741 0 0 0 189.576 21.412 A 3.18 3.18 0 0 0 189.601 21.437 Z M 89.7 49.197 A 2.614 2.614 0 0 0 91.602 49.976 Q 92.749 49.976 93.58 49.146 A 3.18 3.18 0 0 0 93.604 49.121 A 2.657 2.657 0 0 0 94.385 47.193 A 2.741 2.741 0 0 0 93.58 45.215 Q 92.749 44.41 91.602 44.41 A 3.244 3.244 0 0 0 91.566 44.41 A 2.656 2.656 0 0 0 89.649 45.215 Q 88.843 46.045 88.843 47.193 A 3.244 3.244 0 0 0 88.843 47.229 A 2.656 2.656 0 0 0 89.649 49.146 A 3.204 3.204 0 0 0 89.7 49.197 Z M 23.836 16.413 A 2.808 2.808 0 0 0 25 16.651 A 3.244 3.244 0 0 0 25.036 16.651 A 2.656 2.656 0 0 0 26.954 15.845 A 2.728 2.728 0 0 0 27.522 15.032 A 2.808 2.808 0 0 0 27.759 13.868 A 3.244 3.244 0 0 0 27.759 13.832 A 2.656 2.656 0 0 0 26.954 11.914 A 3.18 3.18 0 0 0 26.928 11.889 A 2.657 2.657 0 0 0 25 11.109 A 3.383 3.383 0 0 0 24.964 11.109 A 2.683 2.683 0 0 0 23.023 11.914 A 3.18 3.18 0 0 0 22.998 11.94 A 2.657 2.657 0 0 0 22.217 13.868 A 3.383 3.383 0 0 0 22.217 13.904 A 2.683 2.683 0 0 0 23.023 15.845 A 2.728 2.728 0 0 0 23.836 16.413 Z M 89.674 15.87 A 2.657 2.657 0 0 0 91.602 16.651 A 2.741 2.741 0 0 0 93.58 15.845 A 2.728 2.728 0 0 0 94.148 15.032 A 2.808 2.808 0 0 0 94.385 13.868 A 3.244 3.244 0 0 0 94.385 13.832 A 2.656 2.656 0 0 0 93.58 11.914 Q 92.749 11.109 91.602 11.109 A 3.244 3.244 0 0 0 91.566 11.109 A 2.656 2.656 0 0 0 89.649 11.914 A 3.18 3.18 0 0 0 89.624 11.94 A 2.657 2.657 0 0 0 88.843 13.868 A 3.383 3.383 0 0 0 88.843 13.904 A 2.683 2.683 0 0 0 89.649 15.845 A 3.18 3.18 0 0 0 89.674 15.87 Z M 161.842 15.87 A 2.657 2.657 0 0 0 163.77 16.651 A 2.741 2.741 0 0 0 165.747 15.845 A 2.728 2.728 0 0 0 166.316 15.032 A 2.808 2.808 0 0 0 166.553 13.868 A 3.244 3.244 0 0 0 166.553 13.832 A 2.656 2.656 0 0 0 165.747 11.914 Q 164.917 11.109 163.77 11.109 A 3.244 3.244 0 0 0 163.734 11.109 A 2.656 2.656 0 0 0 161.817 11.914 A 3.18 3.18 0 0 0 161.792 11.94 A 2.657 2.657 0 0 0 161.011 13.868 A 3.383 3.383 0 0 0 161.011 13.904 A 2.683 2.683 0 0 0 161.817 15.845 A 3.18 3.18 0 0 0 161.842 15.87 Z M 45.265 15.87 A 2.657 2.657 0 0 0 47.193 16.651 A 2.741 2.741 0 0 0 49.17 15.845 A 2.728 2.728 0 0 0 49.738 15.032 A 2.808 2.808 0 0 0 49.976 13.868 A 3.244 3.244 0 0 0 49.976 13.832 A 2.656 2.656 0 0 0 49.17 11.914 Q 48.34 11.109 47.193 11.109 A 3.244 3.244 0 0 0 47.157 11.109 A 2.656 2.656 0 0 0 45.24 11.914 A 3.18 3.18 0 0 0 45.215 11.94 A 2.657 2.657 0 0 0 44.434 13.868 A 3.383 3.383 0 0 0 44.434 13.904 A 2.683 2.683 0 0 0 45.24 15.845 A 3.18 3.18 0 0 0 45.265 15.87 Z M 73.024 15.87 A 2.657 2.657 0 0 0 74.952 16.651 A 2.741 2.741 0 0 0 76.929 15.845 A 2.728 2.728 0 0 0 77.497 15.032 A 2.808 2.808 0 0 0 77.735 13.868 A 3.244 3.244 0 0 0 77.735 13.832 A 2.656 2.656 0 0 0 76.929 11.914 Q 76.099 11.109 74.952 11.109 A 3.244 3.244 0 0 0 74.916 11.109 A 2.656 2.656 0 0 0 72.998 11.914 A 3.18 3.18 0 0 0 72.973 11.94 A 2.657 2.657 0 0 0 72.193 13.868 A 3.383 3.383 0 0 0 72.193 13.904 A 2.683 2.683 0 0 0 72.998 15.845 A 3.18 3.18 0 0 0 73.024 15.87 Z M 117.433 15.87 A 2.657 2.657 0 0 0 119.361 16.651 A 2.741 2.741 0 0 0 121.338 15.845 A 2.728 2.728 0 0 0 121.906 15.032 A 2.808 2.808 0 0 0 122.144 13.868 A 3.244 3.244 0 0 0 122.144 13.832 A 2.656 2.656 0 0 0 121.338 11.914 Q 120.508 11.109 119.361 11.109 A 3.244 3.244 0 0 0 119.325 11.109 A 2.656 2.656 0 0 0 117.408 11.914 A 3.18 3.18 0 0 0 117.383 11.94 A 2.657 2.657 0 0 0 116.602 13.868 A 3.383 3.383 0 0 0 116.602 13.904 A 2.683 2.683 0 0 0 117.408 15.845 A 3.18 3.18 0 0 0 117.433 15.87 Z M 145.192 15.87 A 2.657 2.657 0 0 0 147.12 16.651 A 2.741 2.741 0 0 0 149.097 15.845 A 2.728 2.728 0 0 0 149.665 15.032 A 2.808 2.808 0 0 0 149.903 13.868 A 3.244 3.244 0 0 0 149.903 13.832 A 2.656 2.656 0 0 0 149.097 11.914 Q 148.267 11.109 147.12 11.109 A 3.244 3.244 0 0 0 147.084 11.109 A 2.656 2.656 0 0 0 145.166 11.914 A 3.18 3.18 0 0 0 145.141 11.94 A 2.657 2.657 0 0 0 144.361 13.868 A 3.383 3.383 0 0 0 144.361 13.904 A 2.683 2.683 0 0 0 145.166 15.845 A 3.18 3.18 0 0 0 145.192 15.87 Z M 172.95 15.87 A 2.657 2.657 0 0 0 174.878 16.651 A 2.741 2.741 0 0 0 176.856 15.845 A 2.728 2.728 0 0 0 177.424 15.032 A 2.808 2.808 0 0 0 177.662 13.868 A 3.244 3.244 0 0 0 177.661 13.832 A 2.656 2.656 0 0 0 176.856 11.914 Q 176.026 11.109 174.878 11.109 A 3.244 3.244 0 0 0 174.843 11.109 A 2.656 2.656 0 0 0 172.925 11.914 A 3.18 3.18 0 0 0 172.9 11.94 A 2.657 2.657 0 0 0 172.12 13.868 A 3.383 3.383 0 0 0 172.12 13.904 A 2.683 2.683 0 0 0 172.925 15.845 A 3.18 3.18 0 0 0 172.95 15.87 Z M 200.709 15.87 A 2.657 2.657 0 0 0 202.637 16.651 A 2.741 2.741 0 0 0 204.615 15.845 A 2.728 2.728 0 0 0 205.183 15.032 A 2.808 2.808 0 0 0 205.42 13.868 A 3.244 3.244 0 0 0 205.42 13.832 A 2.656 2.656 0 0 0 204.615 11.914 Q 203.785 11.109 202.637 11.109 A 3.244 3.244 0 0 0 202.601 11.109 A 2.656 2.656 0 0 0 200.684 11.914 A 3.18 3.18 0 0 0 200.659 11.94 A 2.657 2.657 0 0 0 199.878 13.868 A 3.383 3.383 0 0 0 199.879 13.904 A 2.683 2.683 0 0 0 200.684 15.845 A 3.18 3.18 0 0 0 200.709 15.87 Z" vector-effect="non-scaling-stroke"/></g></svg>